<?xml version="1.0" standalone="no"?>
<!DOCTYPE svg PUBLIC "-//W3C//DTD SVG 20010904//EN"
 "http://www.w3.org/TR/2001/REC-SVG-20010904/DTD/svg10.dtd">
<svg version="1.0" xmlns="http://www.w3.org/2000/svg"
 width="1920.000000pt" height="1547.000000pt" viewBox="0 0 1920.000000 1547.000000"
 preserveAspectRatio="xMidYMid meet">

<g transform="translate(0.000000,1547.000000) scale(0.100000,-0.100000)"
fill="#000000" stroke="none">
<path d="M18300 9268 c0 -3412 0 -6276 0 -6365 0 -124 -3 -163 -12 -163 -10 0
-12 -279 -10 -1370 2 -1207 4 -1370 17 -1370 13 0 15 76 16 608 1 949 4 1290
11 1298 4 4 8 -422 8 -946 0 -525 2 -956 5 -959 3 -2 5 2751 5 6120 0 3368 2
6850 6 7737 l6 1612 -26 0 -26 0 0 -6202z m30 -6615 c0 -38 -4 -63 -8 -56 -4
6 -6 35 -5 65 1 59 1 58 8 58 3 0 5 -30 5 -67z m0 -335 c0 -144 -3 -259 -6
-256 -3 3 -5 115 -5 249 -1 273 -1 269 6 269 3 0 5 -118 5 -262z m-3 -290 c-3
-8 -6 -5 -6 6 -1 11 2 17 5 13 3 -3 4 -12 1 -19z m3 -63 c0 -25 -4 -45 -9 -45
-5 0 -8 12 -6 28 2 15 4 35 4 45 2 38 11 14 11 -28z"/>
<path d="M10015 15095 c-5 -40 -11 -53 -18 -46 -15 15 -68 13 -88 -2 -30 -23
-41 -57 -34 -103 8 -58 32 -73 113 -72 l63 1 -3 135 c-2 92 -7 137 -15 139 -7
3 -14 -16 -18 -52z m-16 -91 c12 -15 21 -32 21 -39 0 -20 -40 -65 -57 -65 -46
0 -68 64 -37 108 20 29 48 28 73 -4z"/>
<path d="M10796 15128 c-9 -12 -16 -33 -16 -45 0 -14 -6 -23 -15 -23 -8 0 -15
-7 -15 -15 0 -8 7 -15 15 -15 12 0 15 -16 15 -80 0 -73 2 -80 20 -80 18 0 20
7 20 80 0 73 2 80 20 80 11 0 20 7 20 15 0 8 -9 15 -20 15 -32 0 -27 48 6 60
14 6 22 14 19 20 -11 18 -53 11 -69 -12z"/>
<path d="M11557 15144 c-4 -4 -7 -67 -7 -141 0 -127 1 -133 20 -133 20 0 20 5
18 137 -3 127 -10 158 -31 137z"/>
<path d="M11996 15128 c-9 -12 -16 -32 -16 -44 0 -13 -8 -24 -20 -27 -26 -7
-26 -27 0 -27 17 0 19 -8 22 -77 3 -65 6 -78 21 -81 15 -3 17 6 17 73 0 68 2
77 20 82 11 3 20 12 20 19 0 8 -9 14 -20 14 -16 0 -20 7 -20 30 0 23 4 30 20
30 11 0 20 7 20 15 0 23 -47 18 -64 -7z"/>
<path d="M542 15009 c3 -111 6 -134 18 -134 10 0 17 14 20 45 l5 45 54 5 c62
7 91 33 91 85 0 56 -24 73 -113 81 l-78 7 3 -134z m136 79 c7 -7 12 -27 12
-45 0 -36 -21 -48 -76 -41 -27 3 -29 6 -32 51 l-3 47 43 0 c24 0 49 -5 56 -12z"/>
<path d="M3600 15120 c0 -11 7 -20 15 -20 8 0 15 9 15 20 0 11 -7 20 -15 20
-8 0 -15 -9 -15 -20z"/>
<path d="M9705 15108 c-24 -54 -85 -217 -85 -228 0 -25 32 -7 46 26 14 34 16
35 67 32 48 -3 53 -6 66 -35 16 -35 57 -49 47 -15 -21 65 -103 246 -113 249
-7 3 -19 -10 -28 -29z m48 -77 c9 -27 17 -51 17 -55 0 -8 -65 -8 -72 0 -7 6
23 104 32 104 3 0 13 -22 23 -49z"/>
<path d="M11329 15063 c-1 -38 -2 -95 -3 -128 -1 -47 2 -60 14 -60 10 0 17 14
20 45 5 48 3 47 78 49 47 1 72 31 72 85 0 61 -23 76 -112 76 l-68 0 -1 -67z
m135 21 c48 -48 -19 -114 -88 -88 -12 4 -16 20 -16 55 l0 49 44 0 c27 0 51 -6
60 -16z"/>
<path d="M1884 15091 c-4 -17 -12 -31 -20 -31 -23 0 -27 -21 -5 -27 19 -5 21
-13 21 -68 0 -70 17 -98 53 -93 28 4 33 24 7 31 -17 4 -20 13 -20 66 0 54 2
61 20 61 26 0 26 20 1 27 -12 3 -21 15 -23 31 -4 37 -27 40 -34 3z"/>
<path d="M11850 15086 c0 -16 -6 -26 -15 -26 -8 0 -15 -7 -15 -15 0 -8 7 -15
15 -15 12 0 15 -14 15 -64 0 -71 14 -96 56 -96 29 0 32 25 4 33 -17 4 -20 14
-20 66 0 54 2 61 20 61 26 0 26 20 1 27 -11 3 -21 15 -23 26 -2 12 -11 23 -20
25 -13 3 -18 -3 -18 -22z"/>
<path d="M804 15059 c-29 -10 -48 -35 -34 -44 7 -4 17 -2 23 4 15 15 62 14 76
-2 15 -19 4 -27 -36 -27 -43 0 -84 -38 -76 -70 3 -12 17 -29 30 -37 21 -14 30
-15 56 -5 21 8 33 9 35 2 2 -5 10 -10 18 -10 23 0 20 152 -3 172 -22 19 -63
27 -89 17z m71 -99 c9 -15 -12 -48 -36 -55 -14 -5 -27 -1 -38 10 -15 15 -14
18 8 36 25 21 56 25 66 9z"/>
<path d="M2326 15054 c-23 -13 -30 -14 -37 -3 -16 27 -21 -2 -23 -125 -1 -121
2 -136 30 -136 2 0 4 23 4 50 l0 51 31 -17 c88 -45 162 80 92 155 -36 38 -61
44 -97 25z m82 -56 c27 -56 -21 -123 -70 -97 -31 16 -38 28 -38 66 0 42 24 65
64 61 22 -2 34 -11 44 -30z"/>
<path d="M2665 15056 c-81 -35 -69 -173 16 -190 34 -7 92 21 103 50 21 54 -2
120 -49 139 -40 17 -33 17 -70 1z m81 -51 c28 -43 -2 -105 -51 -105 -27 0 -45
26 -45 65 0 42 17 65 50 65 20 0 35 -8 46 -25z"/>
<path d="M2873 15055 c-40 -17 -53 -42 -53 -98 0 -47 15 -69 60 -85 47 -17
140 32 112 60 -8 8 -18 5 -38 -11 -15 -11 -37 -21 -50 -21 -43 0 -64 76 -31
118 15 19 62 14 82 -8 23 -25 35 -25 35 0 0 39 -69 66 -117 45z"/>
<path d="M3083 15059 c-40 -11 -55 -37 -56 -95 0 -49 18 -77 62 -92 49 -17
129 30 90 53 -5 4 -18 0 -28 -9 -23 -21 -54 -20 -74 2 -31 34 -21 42 53 42 39
0 70 4 70 9 0 29 -26 74 -51 86 -15 8 -29 15 -31 14 -2 0 -18 -5 -35 -10z m77
-59 c0 -6 -22 -10 -50 -10 -54 0 -62 10 -29 34 19 13 25 13 50 0 16 -8 29 -19
29 -24z"/>
<path d="M942 15048 c2 -7 17 -53 33 -101 23 -68 27 -92 18 -105 -6 -9 -18
-16 -27 -16 -19 2 -22 -31 -4 -42 15 -10 71 54 85 98 6 18 22 63 36 101 14 40
21 70 15 73 -15 9 -24 -5 -48 -74 -13 -35 -27 -59 -31 -55 -5 5 -17 35 -27 68
-12 41 -24 61 -36 63 -11 3 -16 -1 -14 -10z"/>
<path d="M1140 14964 c0 -86 2 -95 18 -92 14 3 18 16 20 68 3 73 14 92 51 88
25 -3 26 -5 29 -80 2 -56 7 -78 16 -78 9 0 15 21 19 66 7 70 19 94 46 94 31 0
41 -22 41 -92 0 -61 2 -68 20 -68 19 0 19 5 14 83 -7 90 -17 107 -66 107 -15
0 -33 -6 -40 -13 -10 -11 -17 -11 -40 2 -22 13 -33 14 -57 4 -18 -6 -33 -7
-37 -2 -3 5 -12 9 -20 9 -11 0 -14 -19 -14 -96z"/>
<path d="M1488 15050 c-22 -14 -41 -75 -33 -108 11 -44 44 -72 85 -72 39 0 80
23 80 46 0 18 -24 18 -40 -1 -18 -22 -53 -18 -79 9 -29 31 -17 38 62 35 34 -2
61 0 60 4 -2 4 -3 18 -3 32 0 52 -79 85 -132 55z m90 -32 c22 -22 13 -28 -38
-28 -35 0 -50 4 -50 13 0 8 3 17 7 20 11 12 68 8 81 -5z"/>
<path d="M1667 15053 c-4 -3 -7 -46 -7 -95 0 -81 2 -88 20 -88 18 0 20 7 20
63 0 49 4 68 18 80 45 41 72 13 72 -75 0 -54 3 -68 15 -68 22 0 22 152 -1 174
-18 19 -65 21 -82 4 -9 -9 -15 -9 -24 0 -14 14 -22 15 -31 5z"/>
<path d="M2008 15049 c-40 -23 -10 -79 51 -98 30 -8 41 -17 41 -31 0 -16 -7
-20 -34 -20 -18 0 -39 7 -46 15 -18 22 -32 18 -28 -7 4 -32 67 -53 106 -35 33
14 42 25 42 55 0 17 -12 28 -57 50 -69 33 -79 52 -29 52 19 0 38 -4 41 -10 8
-13 35 -13 35 -1 0 35 -81 54 -122 30z"/>
<path d="M2490 14971 c0 -53 4 -93 11 -96 17 -11 21 1 25 61 4 61 24 94 56 94
10 0 18 5 18 10 0 17 -29 23 -46 10 -11 -10 -18 -10 -26 -2 -30 30 -38 13 -38
-77z"/>
<path d="M3242 15048 c-17 -17 -15 -53 4 -69 9 -8 33 -19 53 -24 26 -8 37 -17
39 -33 3 -19 -1 -22 -29 -22 -18 0 -40 7 -50 16 -20 18 -39 11 -39 -15 0 -13
10 -21 31 -25 79 -16 129 -1 129 39 0 31 -18 48 -74 69 -25 10 -46 24 -46 32
0 19 54 18 85 -2 24 -16 25 -15 25 4 0 12 -9 26 -19 32 -27 14 -94 13 -109 -2z"/>
<path d="M3420 15046 c-23 -29 -7 -60 44 -86 53 -27 67 -47 45 -61 -20 -12
-22 -12 -63 16 l-36 24 0 -29 c0 -26 5 -31 42 -41 35 -9 47 -8 68 4 62 38 52
68 -34 110 -31 15 -54 32 -51 37 9 15 59 12 81 -5 24 -18 34 -19 34 -1 0 38
-103 63 -130 32z"/>
<path d="M3599 15058 c-1 -2 -3 -45 -5 -96 -4 -92 -4 -93 19 -90 21 3 22 7 22
93 0 77 -2 90 -17 93 -10 2 -19 2 -19 0z"/>
<path d="M3690 14965 c0 -88 2 -95 20 -95 17 0 19 8 22 72 3 69 4 73 31 82 41
15 52 -3 52 -85 0 -59 2 -69 17 -69 16 0 18 10 18 73 0 49 -5 80 -16 95 -16
24 -53 29 -84 12 -13 -7 -21 -7 -25 0 -3 5 -13 10 -21 10 -11 0 -14 -19 -14
-95z"/>
<path d="M3915 15028 c-23 -27 -26 -39 -22 -75 7 -67 30 -86 95 -80 60 6 71
-10 26 -39 -21 -15 -31 -15 -58 -6 -18 7 -41 12 -51 12 -17 0 -16 -2 5 -25 31
-32 95 -35 134 -4 25 20 26 23 26 135 0 107 -1 114 -20 114 -11 0 -20 -5 -20
-12 0 -9 -3 -9 -12 0 -24 24 -74 14 -103 -20z m99 -17 c26 -28 24 -80 -4 -103
-12 -10 -26 -18 -32 -18 -18 0 -58 50 -58 72 0 58 59 88 94 49z"/>
<path d="M10080 15051 c0 -5 16 -47 35 -93 39 -92 39 -123 0 -138 -41 -16 -29
-44 14 -33 12 3 29 19 38 37 21 41 84 228 78 234 -13 14 -33 -13 -50 -67 -10
-34 -22 -64 -26 -67 -4 -2 -20 27 -35 66 -15 38 -33 70 -41 70 -7 0 -13 -4
-13 -9z"/>
<path d="M10291 15034 c-15 -19 -21 -41 -21 -75 0 -39 4 -51 26 -68 36 -28 82
-27 119 3 27 22 28 25 12 31 -11 5 -25 1 -36 -9 -23 -21 -54 -20 -74 2 -31 34
-21 42 53 42 68 0 70 1 70 25 0 68 -107 103 -149 49z m104 -24 c18 -20 17 -20
-33 -20 -37 0 -52 4 -52 13 0 20 10 27 40 27 15 0 35 -9 45 -20z"/>
<path d="M10477 15043 c-3 -10 -5 -53 -6 -95 -2 -71 0 -78 17 -78 17 0 20 9
24 65 5 76 22 101 62 91 25 -6 26 -9 26 -81 0 -70 2 -75 21 -75 20 0 21 4 18
85 -3 62 -8 88 -19 95 -20 13 -67 13 -90 0 -13 -7 -21 -7 -25 0 -10 15 -23 12
-28 -7z"/>
<path d="M10922 15053 c-21 -8 -42 -59 -42 -101 0 -67 63 -106 124 -77 88 42
62 186 -33 184 -20 0 -42 -3 -49 -6z m83 -43 c20 -22 23 -74 4 -96 -14 -17
-61 -18 -77 -2 -7 7 -12 30 -12 53 0 23 5 46 12 53 18 18 53 14 73 -8z"/>
<path d="M11099 15058 c0 -2 -1 -43 -2 -93 -2 -77 0 -90 15 -93 15 -3 18 7 20
65 3 66 4 68 35 83 18 8 33 21 33 28 0 14 -36 16 -45 2 -4 -7 -12 -7 -25 0
-18 10 -29 13 -31 8z"/>
<path d="M11663 15043 c-13 -8 -23 -22 -23 -29 0 -18 6 -18 40 2 17 11 37 14
54 10 39 -10 32 -33 -13 -39 -78 -10 -116 -62 -73 -100 21 -19 64 -22 92 -7
13 7 21 7 25 0 3 -5 13 -10 20 -10 12 0 14 15 10 78 -3 63 -8 80 -26 95 -26
21 -76 21 -106 0z m97 -85 c-1 -29 -50 -64 -76 -54 -23 9 -16 34 14 50 33 19
62 20 62 4z"/>
<path d="M12101 15033 c-40 -50 -36 -111 10 -145 73 -55 161 9 142 104 -9 45
-38 68 -88 68 -35 0 -47 -5 -64 -27z m101 -20 c21 -19 25 -82 6 -101 -20 -20
-76 -15 -88 7 -36 69 28 143 82 94z"/>
<path d="M12300 14962 c0 -84 2 -93 18 -90 14 3 18 17 22 72 5 69 9 77 53 90
35 11 15 23 -38 22 l-55 0 0 -94z"/>
<path d="M12432 14966 c3 -77 6 -91 21 -94 15 -3 17 5 17 71 0 78 5 87 50 87
28 0 40 -31 40 -100 0 -53 2 -61 18 -58 14 3 17 13 14 64 -3 47 1 65 13 78 39
39 64 11 67 -75 2 -51 6 -64 21 -67 15 -3 17 6 17 76 0 64 -4 82 -18 95 -21
19 -73 22 -89 6 -9 -9 -19 -9 -40 -1 -15 6 -52 11 -81 10 l-53 0 3 -92z"/>
<path d="M12767 15042 c-10 -10 -17 -26 -17 -35 0 -19 46 -57 70 -57 22 0 44
-25 35 -40 -9 -15 -42 -12 -70 6 -23 15 -25 15 -31 0 -16 -42 66 -69 116 -39
22 13 30 25 30 46 0 25 -7 31 -55 52 -32 14 -55 31 -55 40 0 19 40 20 66 0 26
-20 34 -19 34 5 0 40 -92 56 -123 22z"/>
<path d="M4341 13085 c-130 -48 -201 -154 -201 -301 0 -66 4 -84 31 -134 34
-65 111 -136 168 -156 20 -7 69 -13 109 -14 91 0 161 30 222 96 66 71 85 123
84 224 -1 61 -6 96 -19 120 -46 90 -113 147 -205 174 -72 21 -113 20 -189 -9z
m236 -46 c35 -17 63 -37 63 -45 0 -7 4 -14 10 -14 14 0 70 -91 70 -115 0 -13
-12 -28 -31 -39 -29 -17 -34 -36 -11 -44 6 -2 17 8 23 22 21 46 32 30 25 -36
-8 -63 -29 -118 -46 -118 -6 0 -10 -6 -10 -14 0 -23 -61 -77 -115 -102 -46
-22 -51 -22 -62 -7 -12 15 -14 15 -31 0 -10 -9 -27 -17 -37 -17 -16 0 -15 4 9
29 15 16 23 31 18 35 -5 3 -22 -8 -37 -24 -16 -17 -36 -30 -46 -30 -30 0 -136
87 -165 135 -56 96 -41 244 34 327 40 44 76 66 142 84 62 17 123 8 197 -27z"/>
<path d="M4420 13036 c0 -9 7 -16 16 -16 17 0 14 22 -4 28 -7 2 -12 -3 -12
-12z"/>
<path d="M4560 13000 c0 -5 7 -10 15 -10 8 0 15 5 15 10 0 6 -7 10 -15 10 -8
0 -15 -4 -15 -10z"/>
<path d="M4455 12979 c-10 -15 3 -25 16 -12 7 7 7 13 1 17 -6 3 -14 1 -17 -5z"/>
<path d="M4350 12954 c0 -17 22 -14 28 4 2 7 -3 12 -12 12 -9 0 -16 -7 -16
-16z"/>
<path d="M4530 12960 c0 -5 5 -10 10 -10 6 0 10 5 10 10 0 6 -4 10 -10 10 -5
0 -10 -4 -10 -10z"/>
<path d="M4600 12950 c0 -5 4 -10 9 -10 6 0 13 5 16 10 3 6 -1 10 -9 10 -9 0
-16 -4 -16 -10z"/>
<path d="M4250 12940 c-8 -5 -11 -12 -8 -16 10 -9 38 3 38 16 0 12 -10 13 -30
0z"/>
<path d="M4480 12920 c0 -5 7 -10 15 -10 8 0 15 5 15 10 0 6 -7 10 -15 10 -8
0 -15 -4 -15 -10z"/>
<path d="M4560 12920 c0 -5 4 -10 9 -10 6 0 13 5 16 10 3 6 -1 10 -9 10 -9 0
-16 -4 -16 -10z"/>
<path d="M4635 12920 c-3 -5 1 -10 9 -10 9 0 16 5 16 10 0 6 -4 10 -9 10 -6 0
-13 -4 -16 -10z"/>
<path d="M4290 12875 c0 -8 5 -15 10 -15 6 0 10 7 10 15 0 8 -4 15 -10 15 -5
0 -10 -7 -10 -15z"/>
<path d="M4370 12880 c0 -5 7 -10 15 -10 8 0 15 5 15 10 0 6 -7 10 -15 10 -8
0 -15 -4 -15 -10z"/>
<path d="M4450 12875 c0 -9 5 -15 11 -13 6 2 11 8 11 13 0 5 -5 11 -11 13 -6
2 -11 -4 -11 -13z"/>
<path d="M4520 12875 c0 -8 -6 -15 -14 -15 -7 0 -20 -10 -28 -22 l-14 -22 -23
23 c-12 12 -27 21 -34 18 -6 -2 0 -14 16 -27 32 -28 34 -37 7 -45 -11 -3 -20
-13 -20 -22 0 -10 6 -13 16 -9 9 3 18 6 20 6 2 0 4 7 4 15 0 8 7 15 15 15 8 0
15 5 15 11 0 14 47 59 61 59 5 0 9 7 9 15 0 8 -7 15 -15 15 -8 0 -15 -7 -15
-15z"/>
<path d="M4596 12883 c-11 -11 -6 -23 9 -23 8 0 15 4 15 9 0 13 -16 22 -24 14z"/>
<path d="M4670 12876 c0 -9 7 -16 16 -16 9 0 14 5 12 12 -6 18 -28 21 -28 4z"/>
<path d="M4555 12850 c-8 -14 3 -30 21 -30 8 0 14 -7 14 -15 0 -8 7 -15 16
-15 9 0 18 -9 21 -20 6 -23 33 -27 33 -5 0 8 -6 15 -14 15 -24 0 -26 28 -3 43
12 8 19 18 15 23 -5 4 -16 0 -26 -9 -25 -22 -39 -21 -47 3 -7 22 -20 26 -30
10z"/>
<path d="M4340 12825 c0 -9 5 -15 11 -13 6 2 11 8 11 13 0 5 -5 11 -11 13 -6
2 -11 -4 -11 -13z"/>
<path d="M4380 12810 c0 -13 18 -22 24 -11 3 5 -1 11 -9 15 -8 3 -15 1 -15 -4z"/>
<path d="M4507 12792 c-15 -15 -27 -31 -27 -35 0 -15 30 -6 40 13 14 27 44 27
37 0 -3 -13 1 -21 14 -25 10 -4 19 -11 19 -16 0 -5 10 -9 23 -8 l22 0 -22 16
c-13 8 -23 21 -23 27 0 10 -43 56 -52 56 -2 0 -16 -13 -31 -28z"/>
<path d="M4521 12736 c-9 -10 -9 -16 -1 -21 17 -10 37 12 24 25 -8 8 -15 6
-23 -4z"/>
<path d="M4680 12735 c-7 -9 -10 -18 -7 -22 8 -7 37 15 37 28 0 14 -16 11 -30
-6z"/>
<path d="M4445 12731 c-6 -11 9 -23 19 -14 9 9 7 23 -3 23 -6 0 -12 -4 -16 -9z"/>
<path d="M4310 12695 c0 -8 7 -15 15 -15 8 0 15 4 15 9 0 5 -7 11 -15 15 -9 3
-15 0 -15 -9z"/>
<path d="M4482 12689 c2 -6 8 -10 13 -10 5 0 11 4 13 10 2 6 -4 11 -13 11 -9
0 -15 -5 -13 -11z"/>
<path d="M4562 12689 c2 -6 8 -10 13 -10 5 0 11 4 13 10 2 6 -4 11 -13 11 -9
0 -15 -5 -13 -11z"/>
<path d="M4632 12688 c6 -18 28 -21 28 -4 0 9 -7 16 -16 16 -9 0 -14 -5 -12
-12z"/>
<path d="M4410 12680 c0 -5 5 -10 10 -10 6 0 10 5 10 10 0 6 -4 10 -10 10 -5
0 -10 -4 -10 -10z"/>
<path d="M4355 12649 c-10 -15 3 -25 16 -12 7 7 7 13 1 17 -6 3 -14 1 -17 -5z"/>
<path d="M4440 12649 c0 -5 5 -7 10 -4 6 3 10 8 10 11 0 2 -4 4 -10 4 -5 0
-10 -5 -10 -11z"/>
<path d="M4520 12645 c0 -8 7 -15 15 -15 8 0 15 7 15 15 0 8 -7 15 -15 15 -8
0 -15 -7 -15 -15z"/>
<path d="M4600 12646 c0 -9 7 -16 16 -16 9 0 14 5 12 12 -6 18 -28 21 -28 4z"/>
<path d="M4275 12631 c-6 -11 9 -23 19 -14 9 9 7 23 -3 23 -6 0 -12 -4 -16 -9z"/>
<path d="M4460 12610 c0 -5 7 -10 15 -10 8 0 15 5 15 10 0 6 -7 10 -15 10 -8
0 -15 -4 -15 -10z"/>
<path d="M4320 12600 c0 -5 5 -10 10 -10 6 0 10 5 10 10 0 6 -4 10 -10 10 -5
0 -10 -4 -10 -10z"/>
<path d="M4390 12594 c0 -17 22 -14 28 4 2 7 -3 12 -12 12 -9 0 -16 -7 -16
-16z"/>
<path d="M4560 12600 c0 -5 7 -10 15 -10 8 0 15 5 15 10 0 6 -7 10 -15 10 -8
0 -15 -4 -15 -10z"/>
<path d="M4340 12570 c0 -5 9 -14 20 -20 16 -8 20 -8 20 4 0 7 -7 17 -16 20
-21 8 -24 8 -24 -4z"/>
<path d="M4506 12573 c-11 -11 -6 -23 9 -23 8 0 15 4 15 9 0 13 -16 22 -24 14z"/>
<path d="M13622 13100 c-70 -30 -132 -116 -132 -185 0 -34 26 -94 52 -122 l21
-23 -44 -65 c-37 -54 -48 -65 -72 -65 -36 0 -87 -49 -87 -84 0 -32 37 -73 72
-82 56 -13 117 93 77 133 -9 9 1 28 37 77 26 36 49 66 51 66 2 0 17 -7 33 -15
42 -22 42 -76 0 -115 -37 -35 -40 -78 -7 -116 45 -52 120 -28 133 42 7 39 -13
79 -46 89 -15 5 -20 15 -20 44 0 42 11 56 50 65 22 4 31 -4 73 -60 38 -53 45
-69 37 -84 -28 -52 11 -123 68 -123 45 0 72 28 72 75 0 49 -35 88 -79 88 -25
0 -37 9 -70 57 -23 31 -41 60 -41 65 0 5 15 30 32 56 61 88 38 199 -53 259
-43 28 -118 39 -157 23z m113 -39 c78 -35 119 -114 95 -186 -15 -44 -80 -102
-124 -110 -48 -10 -99 10 -136 52 -55 63 -62 102 -29 171 18 35 32 49 73 68
61 28 69 29 121 5z m-263 -468 c26 -23 23 -59 -6 -78 -47 -31 -93 22 -62 70
19 29 42 32 68 8z m242 1 c22 -22 20 -57 -5 -80 -19 -17 -23 -17 -47 -3 -32
17 -40 59 -17 83 21 20 49 21 69 0z m234 4 c25 -25 5 -98 -26 -98 -20 0 -52
34 -52 55 0 44 50 71 78 43z"/>
<path d="M13595 12930 c-7 -12 2 -30 16 -30 12 0 12 27 0 35 -5 3 -12 1 -16
-5z"/>
<path d="M13665 12930 c-9 -15 3 -30 20 -24 7 3 11 12 8 20 -6 16 -19 18 -28
4z"/>
<path d="M13737 12926 c-6 -16 19 -30 28 -16 7 11 -2 30 -15 30 -4 0 -10 -6
-13 -14z"/>
<path d="M13423 12558 c2 -7 10 -13 17 -13 7 0 15 6 18 13 2 7 -5 12 -18 12
-13 0 -20 -5 -17 -12z"/>
<path d="M13664 12569 c-10 -17 13 -36 27 -22 12 12 4 33 -11 33 -5 0 -12 -5
-16 -11z"/>
<path d="M13910 12555 c0 -9 5 -15 11 -13 6 2 11 8 11 13 0 5 -5 11 -11 13 -6
2 -11 -4 -11 -13z"/>
<path d="M12808 12793 c7 -3 16 -2 19 1 4 3 -2 6 -13 5 -11 0 -14 -3 -6 -6z"/>
<path d="M12898 12793 c7 -3 16 -2 19 1 4 3 -2 6 -13 5 -11 0 -14 -3 -6 -6z"/>
<path d="M9193 12766 c-15 -13 -25 -27 -22 -30 3 -3 18 8 34 24 35 36 27 40
-12 6z"/>
<path d="M13540 12161 c20 -11 159 -23 140 -12 -8 4 -46 11 -85 14 -39 4 -63
3 -55 -2z"/>
<path d="M14471 11971 c-27 -29 -30 -30 -46 -14 -13 12 -21 14 -34 6 -9 -6
-15 -17 -14 -24 7 -41 17 -75 26 -86 13 -18 37 -16 37 2 0 8 -5 15 -11 15 -6
0 -9 12 -7 28 5 43 32 34 38 -12 7 -54 30 -60 30 -8 0 29 5 42 18 47 16 6 16
7 -2 17 -19 11 -19 11 -1 24 14 11 16 17 7 26 -8 8 -18 3 -41 -21z"/>
<path d="M3520 11915 l0 -75 35 0 c48 0 75 29 75 79 0 47 -26 71 -77 71 l-33
0 0 -75z m75 0 c0 -34 -3 -40 -22 -43 -21 -3 -23 1 -23 43 0 42 2 46 23 43 19
-3 22 -9 22 -43z"/>
<path d="M3890 11920 c0 -56 3 -70 15 -70 8 0 15 7 15 16 0 13 4 12 26 -5 36
-28 49 -17 22 19 -18 24 -19 32 -8 45 19 23 3 31 -20 10 -20 -18 -20 -18 -20
18 0 26 -4 37 -15 37 -12 0 -15 -14 -15 -70z"/>
<path d="M3998 11953 c-9 -67 1 -100 30 -106 40 -8 62 9 62 46 0 39 -15 57
-47 57 -16 0 -23 6 -23 20 0 35 -17 22 -22 -17z m62 -52 c0 -25 -20 -38 -31
-20 -15 23 -10 39 11 39 13 0 20 -7 20 -19z"/>
<path d="M4330 11976 c0 -8 10 -16 22 -18 20 -3 23 -10 24 -56 4 -97 31 -81
33 19 1 28 6 38 22 42 38 10 9 27 -47 27 -40 0 -54 -4 -54 -14z"/>
<path d="M4662 11918 c3 -77 19 -95 28 -33 3 20 8 36 13 35 4 0 11 0 16 0 6 0
11 -17 13 -37 3 -43 21 -47 26 -7 7 51 -6 74 -38 74 -23 0 -30 4 -30 20 0 11
-7 20 -15 20 -13 0 -15 -13 -13 -72z"/>
<path d="M4841 11964 c-12 -15 -21 -37 -21 -49 0 -30 37 -75 61 -75 37 0 59
19 59 50 0 24 -4 30 -21 30 -18 0 -20 -4 -15 -26 6 -22 4 -25 -16 -22 -20 3
-23 9 -23 43 0 40 0 40 38 38 38 -2 45 5 25 25 -21 21 -65 14 -87 -14z"/>
<path d="M5150 11921 l0 -68 32 -7 c39 -8 68 15 68 54 0 32 -17 50 -47 50 -16
0 -23 6 -23 20 0 11 -7 20 -15 20 -12 0 -15 -14 -15 -69z m68 -23 c-4 -29 -38
-38 -38 -10 0 22 8 32 27 32 9 0 13 -8 11 -22z"/>
<path d="M5270 11921 c0 -56 3 -71 15 -71 9 0 15 9 15 25 0 21 5 25 29 25 24
0 30 -5 33 -25 7 -54 23 -27 26 43 2 59 0 72 -13 72 -10 0 -15 -10 -15 -30 0
-25 -4 -30 -25 -30 -15 0 -25 6 -26 15 -1 8 -2 21 -3 27 0 7 -9 14 -18 16 -16
3 -18 -5 -18 -67z"/>
<path d="M12470 11915 c0 -74 0 -75 26 -75 28 0 65 16 76 34 4 6 8 25 8 41 0
17 -4 35 -8 41 -11 18 -48 34 -76 34 -26 0 -26 -1 -26 -75z m75 0 c0 -34 -3
-40 -22 -43 -21 -3 -23 1 -23 43 0 42 2 46 23 43 19 -3 22 -9 22 -43z"/>
<path d="M12830 11921 c0 -68 16 -104 27 -62 7 26 15 27 31 1 12 -19 42 -28
42 -12 0 4 -7 18 -17 31 -13 19 -14 28 -5 42 7 10 12 21 12 24 0 11 -24 4 -42
-12 -17 -15 -18 -14 -18 20 0 26 -4 37 -15 37 -12 0 -15 -14 -15 -69z"/>
<path d="M12942 11918 l3 -73 35 0 c27 0 37 6 49 27 21 36 2 78 -34 78 -18 0
-25 5 -25 20 0 11 -7 20 -15 20 -13 0 -15 -13 -13 -72z m63 -23 c0 -11 -8 -21
-17 -23 -14 -3 -18 3 -18 23 0 20 4 26 18 23 9 -2 17 -12 17 -23z"/>
<path d="M13350 11915 l0 -75 36 0 c19 0 44 5 55 10 20 11 26 45 9 55 -5 3 -7
20 -3 36 7 37 -7 49 -59 49 l-38 0 0 -75z m68 32 c2 -12 -3 -17 -17 -17 -12 0
-21 6 -21 13 0 31 32 34 38 4z m7 -62 c0 -5 -10 -11 -22 -13 -16 -2 -23 2 -23
13 0 11 7 15 23 13 12 -2 22 -7 22 -13z"/>
<path d="M13590 11915 c0 -57 3 -76 13 -73 8 3 12 27 12 73 0 46 -4 70 -12 72
-10 4 -13 -15 -13 -72z"/>
<path d="M14092 11918 c2 -46 7 -73 16 -76 7 -2 12 6 12 22 0 20 5 26 21 26
37 0 59 19 59 50 0 35 -23 50 -75 50 l-36 0 3 -72z m78 27 c0 -9 -7 -18 -16
-22 -18 -7 -39 11 -30 26 11 17 46 13 46 -4z"/>
<path d="M14222 11918 c2 -40 8 -73 13 -73 6 0 11 33 13 73 2 60 0 72 -13 72
-13 0 -15 -12 -13 -72z"/>
<path d="M3659 11934 c-11 -14 -10 -16 13 -12 28 3 29 2 27 -34 -1 -18 -2 -19
-6 -5 -6 23 -37 18 -41 -7 -5 -24 12 -34 52 -31 28 2 31 6 34 39 2 21 -2 44
-9 52 -15 19 -53 18 -70 -2z"/>
<path d="M3765 11897 c0 -39 4 -52 15 -52 10 0 17 13 20 38 6 48 23 49 30 2 7
-52 25 -43 25 13 l0 47 -45 2 -46 2 1 -52z"/>
<path d="M4117 11943 c-15 -15 -5 -25 18 -19 18 5 25 2 25 -8 0 -8 -10 -16
-22 -18 -24 -3 -37 -36 -19 -47 6 -4 27 -5 46 -3 31 4 35 7 35 34 0 45 -17 68
-49 68 -15 0 -31 -3 -34 -7z m43 -63 c0 -5 -2 -10 -4 -10 -3 0 -8 5 -11 10 -3
6 -1 10 4 10 6 0 11 -4 11 -10z"/>
<path d="M4222 11898 c3 -58 21 -72 26 -21 2 20 11 37 23 43 30 17 22 30 -17
30 l-35 0 3 -52z"/>
<path d="M4451 11936 c-7 -8 -11 -30 -9 -48 4 -39 45 -61 72 -38 22 17 21 86
0 94 -26 10 -51 7 -63 -8z m36 -20 c-4 -9 2 -17 14 -21 21 -7 17 -25 -5 -25
-14 0 -29 38 -20 52 9 14 17 9 11 -6z"/>
<path d="M4560 11931 c-15 -29 -12 -56 8 -74 22 -20 43 -22 60 -5 20 20 14 29
-15 26 -23 -2 -29 1 -31 20 -3 19 1 23 20 22 37 -3 41 -1 28 15 -18 21 -57 19
-70 -4z"/>
<path d="M4961 11900 c2 -61 26 -71 31 -12 2 25 8 37 18 37 10 0 16 -12 18
-37 2 -24 8 -38 17 -38 9 0 15 14 17 38 2 20 8 37 13 37 6 0 11 -17 13 -37 2
-26 8 -38 18 -38 12 0 14 11 12 48 l-3 47 -77 3 -78 2 1 -50z"/>
<path d="M12617 11943 c-4 -3 -7 -12 -7 -20 0 -11 5 -11 20 -3 18 10 20 8 20
-22 0 -30 -1 -31 -14 -12 -17 23 -40 8 -34 -22 3 -15 12 -19 43 -19 38 0 40 2
43 32 4 43 -13 73 -42 73 -12 0 -26 -3 -29 -7z"/>
<path d="M12710 11893 c0 -40 4 -53 15 -53 11 0 15 11 15 41 0 33 3 40 18 37
12 -2 18 -14 20 -41 4 -46 26 -45 30 1 5 51 -12 71 -58 69 l-40 -1 0 -53z"/>
<path d="M13063 11935 c-8 -21 3 -30 20 -17 17 15 26 6 20 -18 -3 -12 -11 -16
-20 -13 -19 7 -35 -17 -22 -33 5 -7 25 -12 44 -12 34 0 35 1 35 38 0 21 -3 45
-6 54 -8 21 -63 21 -71 1z"/>
<path d="M13169 11945 c0 -3 -1 -26 -1 -52 -1 -35 3 -48 13 -48 8 0 15 13 17
32 2 17 10 37 18 43 8 7 14 16 14 21 0 9 -59 13 -61 4z"/>
<path d="M13487 11943 c-4 -3 -7 -12 -7 -20 0 -10 5 -11 19 -3 28 14 30 13 27
-20 -3 -35 -16 -53 -16 -21 0 25 -18 24 -34 -2 -15 -24 8 -38 54 -35 35 3 35
3 31 48 -1 25 -8 48 -14 52 -15 10 -51 10 -60 1z"/>
<path d="M13650 11935 c-11 -13 -8 -15 14 -15 21 0 26 -5 26 -25 0 -14 -4 -25
-10 -25 -5 0 -10 7 -10 16 0 23 -24 11 -28 -13 -3 -23 16 -33 58 -30 23 2 25
6 22 42 -2 22 -8 45 -14 52 -14 17 -43 16 -58 -2z"/>
<path d="M13750 11892 c0 -62 23 -70 28 -9 5 60 42 44 42 -19 0 -23 14 -33 23
-16 3 4 2 27 -2 52 l-6 45 -42 1 -43 0 0 -54z"/>
<path d="M13882 11938 c-17 -17 -15 -73 4 -88 11 -10 23 -11 42 -4 32 11 27
30 -5 26 -19 -2 -23 2 -23 24 0 23 3 25 25 20 18 -5 25 -2 25 8 0 25 -47 35
-68 14z"/>
<path d="M13987 11932 c-22 -25 -21 -55 2 -76 21 -19 62 -18 69 2 2 7 -6 12
-22 12 -21 0 -26 5 -26 25 0 14 5 25 10 25 6 0 10 -7 10 -16 0 -17 31 -16 37
2 5 16 -24 44 -46 44 -10 0 -25 -8 -34 -18z"/>
<path d="M14279 11934 c-11 -14 -10 -16 13 -12 28 3 29 2 27 -34 -1 -18 -2
-19 -6 -5 -7 27 -38 17 -38 -13 0 -22 5 -25 43 -28 l42 -3 0 43 c0 24 -5 49
-12 56 -17 17 -53 15 -69 -4z"/>
<path d="M14533 11924 c-15 -24 -15 -29 -2 -53 29 -52 89 -35 89 25 0 55 -57
74 -87 28z m60 -16 c6 -19 -3 -38 -18 -38 -15 0 -28 27 -19 41 8 13 32 11 37
-3z"/>
<path d="M14644 11898 c1 -31 6 -53 14 -56 8 -2 12 6 12 25 0 33 8 47 33 56
15 5 17 0 17 -38 0 -33 4 -45 15 -45 11 0 15 11 15 41 0 33 3 40 18 37 12 -2
17 -13 18 -38 0 -48 22 -50 26 -3 4 53 32 53 36 0 4 -46 26 -45 30 1 6 63 -5
69 -126 70 l-109 1 1 -51z"/>
<path d="M13220 11820 c0 -6 27 -10 60 -10 33 0 60 4 60 10 0 6 -27 10 -60 10
-33 0 -60 -4 -60 -10z"/>
<path d="M13772 11690 c1 -83 1 -84 8 -25 3 33 3 71 -1 85 -4 15 -7 -9 -7 -60z"/>
<path d="M3677 11742 c-20 -22 -22 -71 -4 -96 16 -22 78 -19 85 4 4 12 2 13
-9 3 -7 -7 -23 -13 -36 -13 -43 0 -54 87 -14 110 9 5 11 10 5 10 -6 0 -18 -8
-27 -18z"/>
<path d="M3736 11746 c21 -15 30 -14 19 3 -3 6 -14 11 -23 11 -13 0 -13 -2 4
-14z"/>
<path d="M12890 11685 l0 -75 34 0 c51 0 67 21 60 78 -7 53 -25 72 -66 72
l-28 0 0 -75z m70 36 c0 -17 -18 -31 -41 -31 -5 0 -9 11 -9 25 0 20 5 25 25
25 18 0 25 -5 25 -19z m5 -66 c0 -14 -8 -21 -27 -23 -22 -3 -28 1 -28 16 0 25
10 33 35 30 12 -2 20 -10 20 -23z"/>
<path d="M13120 11684 c0 -47 4 -73 10 -69 6 3 10 37 10 76 0 39 -4 69 -10 69
-6 0 -10 -32 -10 -76z"/>
<path d="M13999 11739 c-9 -18 -17 -20 -49 -15 l-38 6 5 -43 c7 -49 19 -77 34
-77 7 0 8 7 4 18 -17 39 -17 69 0 76 26 10 35 -2 35 -44 0 -21 5 -42 10 -45 6
-4 10 12 10 39 0 25 4 46 10 46 5 0 7 7 4 15 -4 8 -1 22 6 30 10 12 9 15 -3
15 -9 0 -21 -10 -28 -21z"/>
<path d="M5219 11736 c-9 -9 6 -99 16 -103 6 -2 9 18 9 49 -1 47 -11 68 -25
54z"/>
<path d="M3798 11705 c-16 -35 3 -75 35 -75 30 0 47 18 47 50 0 52 -61 71 -82
25z m62 -5 c14 -26 -4 -63 -28 -58 -18 3 -28 39 -18 64 8 20 34 17 46 -6z"/>
<path d="M3910 11679 c0 -31 4 -48 10 -44 6 3 10 24 10 46 0 33 3 40 18 37 12
-2 19 -16 23 -48 6 -43 6 -43 7 -9 2 38 26 69 42 53 5 -5 10 -27 13 -49 3 -37
4 -36 5 11 l2 52 -65 0 -65 1 0 -50z"/>
<path d="M4081 11658 c0 -46 3 -66 8 -53 5 11 20 22 37 25 27 5 29 8 29 50 0
45 0 45 -37 48 l-38 3 1 -73z m57 50 c26 -26 9 -68 -28 -68 -12 0 -18 46 -8
64 11 19 20 20 36 4z"/>
<path d="M4195 11721 c-4 -7 5 -9 25 -5 23 5 30 3 30 -10 0 -9 -8 -16 -18 -16
-23 0 -42 -19 -42 -42 0 -14 8 -18 35 -18 41 0 47 11 37 60 -6 28 -13 36 -34
38 -14 2 -29 -2 -33 -7z m53 -58 c-4 -23 -48 -31 -48 -10 0 9 6 18 13 20 25
11 38 7 35 -10z"/>
<path d="M4298 11683 c6 -61 12 -68 12 -16 0 28 5 43 16 47 25 10 34 -2 34
-45 0 -24 4 -38 10 -34 9 6 4 70 -7 88 -2 4 -19 7 -37 7 l-34 0 6 -47z"/>
<path d="M4400 11723 c0 -4 8 -27 17 -51 13 -36 14 -48 4 -64 -14 -22 -9 -35
6 -16 14 19 54 130 48 136 -5 5 -25 -42 -25 -59 0 -22 -19 -6 -25 21 -6 27
-25 52 -25 33z"/>
<path d="M4565 11721 c-4 -7 5 -9 24 -5 l31 6 -3 -46 c-2 -33 1 -46 11 -46 9
0 12 13 10 48 -3 45 -5 47 -35 50 -17 2 -34 -2 -38 -7z"/>
<path d="M4677 11723 c-14 -14 -7 -81 9 -87 25 -10 52 -7 60 6 5 8 0 9 -16 5
-43 -11 -68 35 -35 63 12 10 18 10 29 1 9 -7 17 -8 20 -3 10 17 -52 31 -67 15z"/>
<path d="M4782 11718 c-7 -7 -12 -24 -12 -38 0 -14 5 -31 12 -38 14 -14 54
-16 63 -3 3 6 -6 9 -21 8 -33 -2 -50 32 -29 60 12 15 17 16 34 5 18 -10 21
-10 21 3 0 18 -50 21 -68 3z"/>
<path d="M4887 11724 c-10 -10 -9 -66 2 -82 5 -8 21 -12 37 -10 27 3 29 6 29
48 0 43 -1 45 -30 48 -17 2 -34 0 -38 -4z m58 -24 c14 -44 -15 -76 -43 -48
-23 23 -7 68 24 68 7 0 16 -9 19 -20z"/>
<path d="M4990 11696 c0 -54 8 -66 45 -66 41 0 42 3 34 60 -6 42 -6 43 -8 10
-2 -44 -14 -65 -35 -57 -11 4 -16 19 -16 47 0 22 -4 40 -10 40 -5 0 -10 -15
-10 -34z"/>
<path d="M5109 11726 c-2 -3 -2 -26 0 -53 l5 -48 6 45 c4 37 9 45 25 45 16 0
21 -9 26 -40 l6 -40 2 48 c1 47 1 47 -32 47 -19 0 -36 -2 -38 -4z"/>
<path d="M13016 11705 c-6 -18 5 -20 21 -4 11 11 33 5 33 -9 0 -4 -14 -13 -31
-19 -24 -9 -30 -17 -27 -35 2 -19 10 -24 41 -26 l37 -3 0 40 c0 21 -3 46 -6
55 -8 20 -60 21 -68 1z m54 -60 c0 -16 -27 -28 -36 -14 -7 12 15 41 27 33 5
-3 9 -11 9 -19z"/>
<path d="M13167 11714 c-13 -14 -7 -20 21 -19 23 0 27 -4 30 -33 2 -22 -2 -34
-13 -38 -23 -9 -31 4 -17 26 10 17 10 20 -3 20 -8 0 -19 -8 -24 -18 -14 -26 4
-42 47 -42 l33 0 -3 53 c-3 50 -4 52 -33 55 -17 2 -34 0 -38 -4z"/>
<path d="M13270 11665 c0 -35 4 -54 10 -50 6 3 10 24 10 46 0 32 3 39 20 39
11 0 20 -1 20 -2 1 -2 3 -21 6 -43 9 -60 16 -57 12 5 l-3 55 -37 3 -38 3 0
-56z"/>
<path d="M13392 11708 c-17 -17 -15 -73 2 -88 17 -13 58 -10 63 5 2 6 -9 11
-24 10 -25 0 -28 4 -31 34 -3 33 -3 34 28 27 23 -4 30 -2 28 7 -6 17 -50 21
-66 5z"/>
<path d="M13503 11712 c-22 -14 -25 -57 -5 -82 14 -18 24 -22 45 -16 37 9 34
24 -4 18 -30 -4 -30 -4 -27 34 2 27 8 39 18 39 8 0 15 -8 15 -17 0 -23 19 -24
23 -2 6 27 -36 44 -65 26z"/>
<path d="M13650 11644 c0 -47 4 -73 10 -69 6 3 10 13 10 21 0 8 10 14 23 14
31 0 47 18 47 51 0 48 -9 59 -51 59 l-39 0 0 -76z m65 21 c0 -23 -5 -31 -22
-33 -20 -3 -23 1 -23 33 0 32 3 36 23 33 17 -2 22 -10 22 -33z"/>
<path d="M13820 11711 c0 -6 11 -11 25 -11 34 0 31 -13 -6 -27 -24 -9 -30 -17
-27 -35 2 -19 10 -24 41 -26 l38 -3 -3 53 c-3 52 -4 53 -35 56 -19 2 -33 -1
-33 -7z m50 -61 c0 -12 -28 -25 -36 -17 -9 9 6 27 22 27 8 0 14 -5 14 -10z"/>
<path d="M14053 11694 c-15 -24 -15 -29 -2 -53 32 -57 104 -11 80 52 -14 36
-54 37 -78 1z m62 -5 c13 -19 -4 -59 -25 -59 -12 0 -22 9 -26 24 -7 31 1 46
26 46 10 0 22 -5 25 -11z"/>
<path d="M14167 11713 c-11 -10 -8 -103 3 -103 6 0 10 18 10 40 0 27 5 43 15
46 8 4 15 10 15 15 0 10 -33 12 -43 2z"/>
<path d="M14229 11715 c-8 -7 3 -95 12 -95 5 0 9 18 9 40 0 33 3 40 20 40 17
0 20 -7 20 -46 0 -27 4 -43 10 -39 6 3 10 24 10 46 0 33 3 40 18 37 12 -2 18
-15 20 -46 2 -23 7 -40 13 -37 13 9 11 81 -3 93 -12 9 -121 16 -129 7z"/>
<path d="M4570 11675 c-16 -19 -6 -45 17 -45 15 0 16 2 3 10 -12 8 -13 13 -2
30 14 23 1 27 -18 5z"/>
<path d="M11825 11028 c-23 -12 -45 -37 -45 -52 0 -5 11 1 24 13 13 13 41 29
63 36 37 14 37 14 8 14 -16 0 -39 -5 -50 -11z"/>
<path d="M15515 11028 c17 -6 42 -19 57 -30 18 -13 26 -15 23 -6 -8 20 -59 48
-87 47 -21 0 -20 -2 7 -11z"/>
<path d="M15600 10963 c0 -4 5 -15 10 -23 8 -13 10 -13 10 2 0 9 -4 20 -10 23
-5 3 -10 3 -10 -2z"/>
<path d="M11768 10665 c-3 -14 -1 -25 3 -25 5 0 9 11 9 25 0 14 -2 25 -4 25
-2 0 -6 -11 -8 -25z"/>
<path d="M15554 10340 c-41 -17 -74 -68 -74 -117 0 -39 5 -50 35 -79 20 -18
51 -36 70 -40 68 -12 133 35 142 103 13 94 -85 169 -173 133z m108 -40 c68
-53 25 -170 -63 -170 -33 0 -89 62 -89 100 0 72 95 116 152 70z"/>
<path d="M4217 10323 c-14 -13 -6 -50 13 -68 19 -17 20 -31 20 -267 l0 -248
-27 -2 c-16 0 -40 0 -55 1 -27 2 -46 -13 -29 -24 6 -3 146 -7 313 -8 281 -2
303 -1 306 16 3 14 -5 17 -52 17 l-56 0 0 254 c0 216 2 255 15 260 18 7 20 47
3 64 -13 13 -439 18 -451 5z m433 -32 c0 -13 -85 -20 -190 -16 -52 3 -123 5
-157 5 -35 0 -63 4 -63 10 0 6 75 10 205 10 113 0 205 -4 205 -9z m-67 -48
l37 -5 0 -249 0 -249 -30 0 -30 0 0 75 0 75 -110 0 -110 0 0 -75 0 -75 -30 0
-30 0 0 255 0 256 133 -2 c72 -1 149 -4 170 -6z m-153 -443 l0 -60 -30 0 c-30
0 -30 1 -30 53 0 60 4 67 37 67 22 0 23 -4 23 -60z m98 -3 l3 -58 -33 3 c-32
3 -33 5 -35 48 -3 62 2 72 34 68 27 -3 28 -6 31 -61z"/>
<path d="M4335 10171 c-7 -12 12 -24 25 -16 11 7 4 25 -10 25 -5 0 -11 -4 -15
-9z"/>
<path d="M4437 10173 c-12 -11 -8 -23 8 -23 8 0 15 7 15 15 0 16 -12 20 -23 8z"/>
<path d="M4527 10173 c-13 -12 -7 -23 13 -23 11 0 20 7 20 15 0 15 -21 21 -33
8z"/>
<path d="M4330 10065 c0 -10 7 -15 18 -13 21 4 19 22 -2 26 -10 2 -16 -3 -16
-13z"/>
<path d="M4426 10071 c-7 -11 18 -33 27 -24 4 3 7 12 7 20 0 15 -26 18 -34 4z"/>
<path d="M4522 10063 c2 -10 10 -18 18 -18 8 0 16 8 18 18 2 12 -3 17 -18 17
-15 0 -20 -5 -18 -17z"/>
<path d="M4336 9971 c-7 -11 18 -33 27 -24 4 3 7 12 7 20 0 15 -26 18 -34 4z"/>
<path d="M4432 9963 c4 -21 33 -25 33 -3 0 8 -8 16 -18 18 -14 3 -18 -1 -15
-15z"/>
<path d="M4522 9968 c7 -19 38 -22 38 -4 0 10 -9 16 -21 16 -12 0 -19 -5 -17
-12z"/>
<path d="M11714 10300 c-11 -4 -34 -24 -52 -44 -26 -30 -32 -45 -32 -83 0 -39
5 -50 39 -84 32 -32 46 -39 78 -39 107 0 172 122 107 200 -44 52 -92 70 -140
50z m107 -59 c35 -35 37 -70 8 -117 -36 -58 -109 -61 -146 -5 -32 47 -30 86 6
122 22 21 39 29 66 29 27 0 44 -8 66 -29z"/>
<path d="M15417 10049 c-20 -11 -49 -38 -65 -61 -25 -38 -27 -51 -30 -155 -3
-94 -1 -113 11 -113 19 0 27 43 27 143 0 93 19 135 74 161 53 25 78 20 120
-23 l39 -40 -31 -83 c-18 -46 -32 -89 -32 -94 0 -6 16 -22 36 -37 l36 -25 39
26 c21 15 38 32 39 38 0 6 -13 44 -30 84 -16 40 -30 77 -30 82 0 23 65 88 87
88 41 0 89 -27 119 -66 27 -35 29 -44 32 -146 3 -77 7 -108 15 -105 16 5 21
161 7 209 -14 50 -56 97 -105 119 -61 28 -304 27 -358 -2z m223 -17 c0 -10
-39 -47 -43 -41 -1 2 -11 14 -21 27 l-19 22 41 0 c23 0 42 -4 42 -8z m4 -244
c-13 -21 -42 -27 -62 -12 -19 13 -20 17 -8 47 7 17 16 41 21 52 6 17 11 13 31
-29 12 -28 21 -53 18 -58z"/>
<path d="M16240 10040 c0 -5 17 -10 38 -9 30 0 33 2 17 9 -28 12 -55 12 -55 0z"/>
<path d="M17510 10039 l-45 -6 48 -3 c26 -1 52 -3 57 -4 6 0 26 -14 45 -29 26
-21 37 -38 42 -70 5 -32 8 -37 13 -22 10 28 -6 75 -33 102 -29 30 -71 40 -127
32z"/>
<path d="M17368 10033 c6 -2 18 -2 25 0 6 3 1 5 -13 5 -14 0 -19 -2 -12 -5z"/>
<path d="M11585 10008 c-40 -14 -84 -56 -101 -95 -9 -21 -14 -71 -14 -138 0
-95 2 -106 17 -103 15 3 17 18 18 113 0 130 11 156 82 187 40 17 62 19 182 16
152 -4 187 -15 221 -71 17 -27 20 -51 20 -140 0 -83 3 -108 13 -105 14 5 22
138 12 206 -8 56 -52 106 -112 126 -54 19 -288 21 -338 4z"/>
<path d="M9689 9971 c-16 -16 -29 -38 -30 -48 0 -10 -2 -26 -4 -35 -2 -10 1
-18 6 -18 5 0 9 10 9 23 0 32 25 64 68 87 37 19 37 19 9 20 -19 0 -39 -10 -58
-29z"/>
<path d="M11560 9756 c0 -62 3 -76 15 -76 13 0 15 12 13 72 -2 46 -7 73 -15
76 -10 3 -13 -16 -13 -72z"/>
<path d="M11912 9753 c2 -44 7 -78 13 -78 6 0 11 34 13 78 2 65 0 77 -13 77
-13 0 -15 -12 -13 -77z"/>
<path d="M3840 9165 c0 -83 4 -87 68 -64 37 13 56 57 42 95 -10 26 -16 29 -72
39 l-38 6 0 -76z m75 0 c0 -34 -3 -40 -22 -43 -21 -3 -23 1 -23 43 0 42 2 46
23 43 19 -3 22 -9 22 -43z"/>
<path d="M4200 9171 c0 -56 3 -71 15 -71 8 0 15 8 15 17 0 14 4 12 25 -7 31
-29 44 -20 21 15 -13 20 -14 28 -4 44 17 27 3 38 -21 17 -19 -17 -20 -17 -23
15 -2 18 -9 34 -15 37 -10 3 -13 -15 -13 -67z"/>
<path d="M4420 9171 c0 -67 1 -69 28 -74 69 -14 99 63 35 93 -17 8 -34 23 -36
33 -3 9 -10 17 -16 17 -7 0 -11 -26 -11 -69z m65 -26 c0 -11 -8 -21 -17 -23
-14 -3 -18 3 -18 23 0 20 4 26 18 23 9 -2 17 -12 17 -23z"/>
<path d="M4825 9227 c-4 -8 -5 -41 -3 -73 l3 -59 40 3 c47 4 62 17 71 58 8 39
-19 71 -68 80 -29 5 -39 3 -43 -9z m76 -38 c15 -28 -4 -72 -29 -67 -12 2 -18
15 -20 46 -3 37 -1 42 17 42 11 0 25 -10 32 -21z"/>
<path d="M4967 9233 c-11 -10 -8 -131 2 -138 14 -8 91 6 85 16 -3 5 -18 9 -35
9 -37 0 -40 27 -2 32 39 4 42 28 4 28 -21 0 -31 5 -31 15 0 10 10 15 30 15 20
0 30 5 30 15 0 11 -11 15 -38 15 -21 0 -42 -3 -45 -7z"/>
<path d="M11860 9144 c0 -56 3 -75 13 -72 6 3 14 20 17 38 7 47 30 52 30 6 0
-36 17 -57 29 -37 4 7 5 29 2 49 -5 31 -11 38 -34 40 -21 3 -27 9 -27 28 0 15
-6 24 -15 24 -12 0 -15 -15 -15 -76z"/>
<path d="M12089 9211 c-2 -6 -2 -40 -1 -76 3 -45 8 -65 15 -62 16 5 16 139 0
144 -6 2 -13 -1 -14 -6z"/>
<path d="M12204 9195 c-4 -18 -13 -25 -30 -25 -33 0 -52 -40 -36 -74 9 -21 18
-25 52 -23 l40 1 0 73 c0 72 -14 97 -26 48z m-4 -70 c0 -15 -6 -25 -14 -25
-16 0 -25 19 -18 38 8 22 32 13 32 -13z"/>
<path d="M14770 9205 c0 -9 5 -15 11 -13 6 2 11 8 11 13 0 5 -5 11 -11 13 -6
2 -11 -4 -11 -13z"/>
<path d="M14926 9213 c-3 -3 -6 -33 -6 -65 0 -53 2 -60 25 -70 37 -17 75 3 75
40 0 34 -16 52 -47 52 -16 0 -23 6 -23 19 0 21 -13 34 -24 24z m62 -91 c3 -17
-2 -22 -17 -22 -14 0 -21 6 -21 18 0 38 33 41 38 4z"/>
<path d="M15046 9213 c-3 -3 -6 -37 -6 -75 0 -54 3 -68 15 -68 12 0 15 14 15
69 0 65 -8 90 -24 74z"/>
<path d="M16004 9206 c-10 -25 1 -129 14 -134 8 -2 12 8 12 32 0 19 5 38 11
41 14 9 16 6 22 -33 6 -39 14 -49 26 -36 5 5 6 27 2 49 -5 34 -10 40 -34 43
-21 3 -27 9 -27 28 0 26 -17 33 -26 10z"/>
<path d="M16230 9145 c0 -57 3 -76 13 -72 8 2 12 26 12 72 0 46 -4 70 -12 73
-10 3 -13 -16 -13 -73z"/>
<path d="M16347 9213 c-4 -3 -7 -14 -7 -24 0 -12 -9 -19 -27 -21 -24 -2 -29
-8 -31 -36 -4 -41 12 -62 47 -62 40 0 46 12 43 84 -3 62 -9 75 -25 59z m-7
-88 c0 -16 -6 -25 -15 -25 -9 0 -15 9 -15 25 0 16 6 25 15 25 9 0 15 -9 15
-25z"/>
<path d="M11113 9198 c-12 -17 -43 -100 -43 -117 0 -11 4 -10 18 2 24 22 58
22 70 1 5 -9 14 -14 20 -10 8 5 4 26 -11 68 -23 63 -37 78 -54 56z m22 -67
c-9 -16 -25 -3 -18 15 4 10 9 12 15 6 6 -6 7 -15 3 -21z"/>
<path d="M14658 9203 c-2 -4 -3 -35 -3 -68 l0 -60 43 -3 c33 -2 42 0 42 12 0
10 -9 16 -25 16 -22 0 -25 4 -26 40 -1 22 -2 45 -3 52 -1 14 -23 22 -28 11z"/>
<path d="M3993 9193 c-21 -8 -15 -23 10 -23 17 0 23 -6 25 -25 1 -13 -3 -27
-10 -31 -7 -5 -9 0 -6 14 7 26 -1 28 -28 7 -18 -14 -18 -16 -2 -28 10 -8 31
-12 48 -9 26 4 30 8 30 37 0 49 -29 74 -67 58z"/>
<path d="M4108 9193 c-26 -4 -28 -8 -28 -49 0 -32 4 -44 15 -44 11 0 15 11 15
36 0 28 3 35 18 32 11 -2 18 -14 20 -36 5 -48 22 -39 22 12 0 31 -5 46 -16 50
-9 3 -16 5 -17 5 -1 -1 -14 -4 -29 -6z"/>
<path d="M4323 9193 c-22 -8 -14 -24 10 -21 18 2 23 -2 25 -24 2 -16 -1 -28
-7 -28 -6 0 -11 7 -11 15 0 20 -14 19 -31 -1 -11 -14 -11 -18 4 -29 10 -7 32
-11 50 -10 31 3 32 4 29 41 -6 57 -27 75 -69 57z"/>
<path d="M4547 9193 c-14 -13 -6 -24 15 -21 17 2 22 -3 25 -24 3 -20 -1 -28
-11 -28 -10 0 -13 6 -10 15 4 8 2 15 -4 15 -5 0 -15 -7 -22 -15 -19 -23 3 -42
45 -37 32 4 35 7 35 37 0 19 -7 41 -16 49 -16 16 -46 21 -57 9z"/>
<path d="M4642 9143 c3 -55 21 -65 26 -15 2 18 10 36 18 39 25 9 15 23 -17 23
-30 0 -30 -1 -27 -47z"/>
<path d="M11755 9178 c-9 -24 10 -103 25 -106 12 -2 15 8 13 45 -2 72 -2 73
-18 73 -9 0 -18 -6 -20 -12z"/>
<path d="M15897 9177 c-3 -7 -3 -34 0 -60 4 -35 10 -47 22 -47 15 0 18 29 12
108 -1 16 -27 16 -34 -1z"/>
<path d="M11333 9168 c-23 -11 -37 -47 -27 -72 7 -18 47 -31 69 -22 26 10 17
32 -12 31 -21 0 -28 5 -28 20 0 16 6 20 28 18 31 -2 36 12 10 25 -11 6 -26 6
-40 0z"/>
<path d="M11430 9160 c-11 -11 -20 -29 -20 -39 0 -24 26 -51 49 -51 22 0 51
31 51 53 0 19 -34 57 -50 57 -5 0 -19 -9 -30 -20z m48 -37 c4 -24 -26 -40 -34
-18 -8 21 3 47 19 43 6 -3 13 -14 15 -25z"/>
<path d="M14834 9165 c-10 -7 -15 -19 -11 -27 3 -9 1 -20 -5 -26 -19 -19 11
-43 46 -40 27 3 31 7 33 33 1 17 -1 37 -3 46 -6 22 -39 30 -60 14z m36 -19 c0
-11 -19 -15 -25 -6 -3 5 1 10 9 10 9 0 16 -2 16 -4z m-1 -42 c-9 -11 -15 -12
-23 -4 -8 8 -7 13 4 20 20 12 33 1 19 -16z"/>
<path d="M15473 9169 c-40 -15 -42 -82 -2 -94 25 -8 59 3 59 20 0 9 -10 13
-27 12 -22 -2 -28 2 -28 18 0 16 6 19 28 17 15 -1 27 2 27 7 0 17 -34 29 -57
20z"/>
<path d="M15571 9163 c-23 -16 -28 -62 -9 -81 36 -36 102 15 80 62 -13 29 -45
38 -71 19z m46 -29 c3 -8 -1 -23 -10 -32 -15 -14 -17 -14 -23 1 -8 21 1 47 16
47 6 0 13 -7 17 -16z"/>
<path d="M11210 9150 c-26 -48 26 -103 65 -70 21 17 10 28 -21 22 -22 -4 -25
-2 -22 19 2 20 8 23 32 21 19 -2 27 1 24 10 -3 7 -19 14 -36 16 -23 2 -33 -2
-42 -18z"/>
<path d="M11528 9165 c-2 -3 -2 -24 1 -47 6 -43 6 -43 46 -43 l40 1 3 47 c2
37 0 47 -12 47 -12 0 -16 -10 -16 -35 0 -24 -5 -35 -15 -35 -10 0 -15 11 -15
35 0 32 -15 46 -32 30z"/>
<path d="M11642 9123 c4 -57 22 -64 26 -10 4 50 30 50 34 0 2 -20 9 -38 16
-41 10 -3 12 8 10 44 l-3 49 -43 3 -43 3 3 -48z"/>
<path d="M11980 9150 c-29 -55 30 -105 73 -62 17 18 19 26 11 49 -13 37 -67
45 -84 13z m55 -30 c0 -13 -6 -25 -12 -27 -16 -6 -27 21 -19 43 9 23 31 11 31
-16z"/>
<path d="M12260 9150 c-25 -46 11 -90 60 -75 30 9 24 25 -9 25 -24 0 -28 4
-28 25 0 15 5 25 13 25 8 0 13 -5 12 -12 -2 -6 5 -14 15 -16 15 -3 18 1 15 20
-4 33 -62 39 -78 8z"/>
<path d="M12360 9119 c0 -36 4 -49 13 -47 6 3 14 18 15 34 2 16 10 33 18 37
24 13 16 27 -16 27 -29 0 -30 -1 -30 -51z"/>
<path d="M14770 9119 c0 -32 4 -49 11 -47 6 2 10 7 10 11 -1 4 -1 25 -1 47 0
22 -4 40 -10 40 -5 0 -10 -23 -10 -51z"/>
<path d="M15102 9158 c-16 -16 -15 -50 1 -72 16 -22 60 -18 65 5 2 13 -3 15
-23 12 -20 -4 -25 -1 -25 15 0 26 18 38 26 18 7 -19 34 -21 34 -3 0 19 -21 37
-45 37 -12 0 -26 -5 -33 -12z"/>
<path d="M15240 9155 c0 -9 8 -14 22 -12 17 1 24 -4 26 -20 2 -13 -1 -23 -7
-23 -6 0 -11 5 -11 10 0 12 -27 13 -34 1 -14 -21 6 -38 45 -38 37 0 39 1 39
33 0 52 -9 64 -46 64 -23 0 -34 -5 -34 -15z"/>
<path d="M15352 9158 c-15 -15 -16 -60 0 -76 17 -17 53 -15 68 3 11 13 8 15
-19 15 -28 0 -32 3 -29 23 2 18 8 21 32 19 19 -2 27 1 24 10 -6 17 -60 22 -76
6z"/>
<path d="M15665 9128 c9 -57 11 -59 53 -55 36 4 37 5 40 51 2 35 0 46 -12 46
-9 0 -16 -12 -18 -32 -2 -21 -8 -33 -18 -33 -10 0 -16 12 -18 33 -2 20 -9 32
-18 32 -12 0 -14 -9 -9 -42z"/>
<path d="M15780 9120 c0 -61 23 -66 28 -7 2 23 8 37 17 37 9 0 15 -14 17 -37
2 -20 9 -38 16 -41 10 -3 12 8 10 44 l-3 49 -42 3 -43 3 0 -51z"/>
<path d="M16120 9150 c-29 -55 30 -105 73 -62 17 18 19 26 11 49 -13 37 -67
45 -84 13z m55 -30 c0 -27 -22 -39 -31 -16 -8 22 3 49 19 43 6 -2 12 -14 12
-27z"/>
<path d="M16400 9149 c-25 -45 12 -89 61 -74 26 9 19 31 -9 27 -23 -3 -39 19
-27 38 5 8 13 6 26 -6 23 -20 33 -14 24 15 -9 29 -60 29 -75 0z"/>
<path d="M16504 9156 c-8 -22 0 -81 11 -81 6 0 12 14 13 30 2 17 10 34 18 38
22 13 16 27 -11 27 -14 0 -28 -6 -31 -14z"/>
<path d="M4730 9070 c0 -5 16 -10 35 -10 19 0 35 5 35 10 0 6 -16 10 -35 10
-19 0 -35 -4 -35 -10z"/>
<path d="M4083 8900 c0 -41 2 -58 4 -38 4 37 25 64 41 54 5 -3 13 -25 18 -48
l8 -43 4 38 c4 44 -12 69 -41 65 -15 -2 -23 4 -28 22 -4 15 -7 -5 -6 -50z"/>
<path d="M3636 8938 c1 -13 3 -43 5 -68 2 -39 3 -41 6 -12 3 23 9 32 17 29 11
-4 11 3 4 34 -11 41 -36 55 -32 17z"/>
<path d="M3731 8928 c-6 -17 -9 -34 -6 -36 3 -3 5 0 5 6 0 7 5 12 10 12 6 0
10 -19 11 -42 0 -26 3 -36 7 -26 9 22 2 118 -8 118 -4 0 -13 -14 -19 -32z"/>
<path d="M5187 8943 c-11 -17 8 -116 23 -121 13 -5 13 -3 1 11 -9 11 -12 31
-8 56 5 38 -5 72 -16 54z"/>
<path d="M4409 8933 c-4 -32 4 -90 14 -100 9 -9 12 1 11 44 0 34 -5 58 -12 61
-7 2 -12 0 -13 -5z"/>
<path d="M3805 8907 c-12 -18 -13 -31 -6 -50 11 -29 47 -45 64 -28 8 8 4 11
-15 11 -32 0 -44 16 -28 35 10 12 10 15 -1 15 -10 0 -9 5 4 17 13 14 19 15 29
5 10 -10 10 -15 -2 -22 -13 -8 -12 -10 3 -10 13 0 18 6 15 23 -4 32 -42 35
-63 4z"/>
<path d="M3918 8923 c-14 -3 -18 -15 -18 -49 0 -24 5 -44 10 -44 6 0 10 16 10
35 0 22 6 38 15 41 8 4 15 10 15 15 0 9 -4 10 -32 2z"/>
<path d="M3980 8910 c-11 -11 -20 -27 -20 -35 0 -16 34 -55 48 -55 5 0 16 6
25 13 16 11 14 12 -15 12 -28 0 -33 4 -36 27 -3 28 30 58 43 38 3 -5 11 -10
17 -10 7 0 6 6 -2 15 -17 20 -36 19 -60 -5z"/>
<path d="M4195 8920 c-4 -7 2 -10 21 -8 15 2 29 -3 31 -9 3 -8 -3 -13 -14 -13
-24 0 -43 -19 -43 -42 0 -14 8 -18 38 -18 l38 0 -6 48 c-4 42 -8 47 -32 50
-14 2 -29 -2 -33 -8z m55 -54 c0 -19 -17 -29 -37 -22 -12 5 -13 9 -3 21 16 19
40 19 40 1z"/>
<path d="M4296 8920 c-1 -3 1 -25 5 -50 6 -43 6 -44 7 -9 2 38 23 66 42 54 5
-3 10 -24 10 -46 0 -21 5 -39 10 -39 13 0 13 56 0 81 -8 14 -20 19 -41 17 -17
-1 -31 -5 -33 -8z"/>
<path d="M4540 8919 c0 -6 6 -9 14 -6 8 3 20 0 26 -8 8 -10 8 -14 -2 -18 -10
-4 -10 -6 0 -6 20 -2 14 -41 -6 -41 -26 0 -34 11 -21 27 7 8 8 13 1 13 -10 0
-22 -23 -22 -41 0 -5 18 -9 40 -9 39 0 40 1 40 34 0 19 -7 42 -16 50 -18 18
-54 21 -54 5z"/>
<path d="M4646 8914 c-17 -16 -21 -51 -8 -70 13 -20 47 -25 68 -10 18 13 17
14 -16 13 -33 -2 -35 0 -35 28 0 28 3 30 33 28 27 -1 31 1 21 13 -15 19 -44
18 -63 -2z"/>
<path d="M4755 8914 c-36 -36 9 -110 49 -81 16 12 15 13 -11 12 -25 0 -28 4
-28 30 0 28 2 30 35 28 33 -1 34 0 16 13 -26 18 -41 18 -61 -2z"/>
<path d="M4862 8918 c-20 -20 -15 -76 8 -88 32 -17 60 4 60 43 0 36 -15 57
-40 57 -9 0 -21 -5 -28 -12z m58 -43 c0 -34 -24 -50 -44 -30 -9 9 -16 23 -16
30 0 7 7 21 16 30 20 20 44 4 44 -30z"/>
<path d="M5028 8888 c-2 -36 -7 -44 -25 -46 -21 -3 -23 1 -23 37 0 23 -4 41
-10 41 -14 0 -12 -76 3 -88 6 -6 24 -8 40 -5 25 5 27 9 27 54 0 60 -8 64 -12
7z"/>
<path d="M5076 8921 c-9 -14 -4 -91 6 -91 4 0 8 18 8 39 0 43 9 55 34 45 9 -3
16 -22 19 -47 l4 -42 1 46 c2 35 -2 48 -14 53 -23 9 -52 7 -58 -3z"/>
<path d="M3705 8870 c-4 -6 -10 -8 -15 -5 -4 3 -6 -4 -3 -15 7 -28 20 -25 25
5 6 27 3 31 -7 15z"/>
<path d="M11756 8555 c-4 -12 4 -15 42 -14 27 1 36 4 22 6 -14 3 -29 9 -34 14
-14 13 -23 11 -30 -6z"/>
<path d="M11528 8543 c6 -2 18 -2 25 0 6 3 1 5 -13 5 -14 0 -19 -2 -12 -5z"/>
<path d="M11877 8543 c18 -2 50 -2 70 0 21 2 7 4 -32 4 -38 0 -55 -2 -38 -4z"/>
<path d="M12003 8543 c9 -2 23 -2 30 0 6 3 -1 5 -18 5 -16 0 -22 -2 -12 -5z"/>
<path d="M12068 8543 c6 -2 18 -2 25 0 6 3 1 5 -13 5 -14 0 -19 -2 -12 -5z"/>
<path d="M12118 8543 c7 -3 16 -2 19 1 4 3 -2 6 -13 5 -11 0 -14 -3 -6 -6z"/>
<path d="M12158 8543 c6 -2 18 -2 25 0 6 3 1 5 -13 5 -14 0 -19 -2 -12 -5z"/>
<path d="M12208 8543 c7 -3 16 -2 19 1 4 3 -2 6 -13 5 -11 0 -14 -3 -6 -6z"/>
<path d="M12248 8543 c7 -3 16 -2 19 1 4 3 -2 6 -13 5 -11 0 -14 -3 -6 -6z"/>
<path d="M10785 8530 c-21 -8 -51 -38 -44 -44 2 -2 22 10 43 25 39 29 39 35 1
19z"/>
<path d="M14714 8486 c-28 -12 -44 -33 -44 -56 0 -5 13 5 29 21 16 16 36 29
45 29 8 0 18 5 21 10 9 14 -14 12 -51 -4z"/>
<path d="M10721 8374 c0 -11 3 -14 6 -6 3 7 2 16 -1 19 -3 4 -6 -2 -5 -13z"/>
<path d="M10720 8300 c0 -5 5 -10 10 -10 6 0 10 5 10 10 0 6 -4 10 -10 10 -5
0 -10 -4 -10 -10z"/>
<path d="M16355 7806 c-13 -9 -15 -36 -13 -186 l3 -175 305 0 305 0 3 172 c2
171 2 172 -21 188 -20 13 -66 15 -295 14 -187 -1 -276 -5 -287 -13z m570 -181
l0 -150 -277 -3 c-153 -1 -278 1 -279 5 -1 11 -1 89 0 206 l1 97 278 -2 277
-3 0 -150z"/>
<path d="M16406 7734 c-7 -19 -8 -64 -1 -64 8 0 64 64 65 73 0 15 -58 7 -64
-9z"/>
<path d="M16830 7743 c1 -10 47 -63 55 -63 3 0 5 16 5 35 0 32 -2 35 -30 35
-16 0 -30 -3 -30 -7z"/>
<path d="M16581 7694 c-26 -21 -31 -33 -31 -67 1 -45 13 -67 47 -85 82 -44
176 47 133 129 -13 24 -61 49 -94 49 -13 0 -38 -12 -55 -26z m112 -32 c23 -20
22 -51 -5 -79 -27 -28 -57 -29 -86 -3 -26 25 -28 61 -4 82 33 29 60 29 95 0z"/>
<path d="M16400 7540 c0 -23 5 -31 24 -36 41 -10 49 5 19 37 -35 37 -43 37
-43 -1z"/>
<path d="M16858 7547 c-38 -31 -36 -49 5 -45 28 3 32 7 35 36 4 38 -3 39 -40
9z"/>
<path d="M10620 7780 l-135 -5 0 -295 0 -295 288 -3 287 -2 0 92 c0 70 4 96
16 109 21 23 20 103 -1 135 -11 17 -15 51 -15 127 0 145 5 141 -166 142 -77 0
-200 -2 -274 -5z m405 -45 c0 -6 -94 -11 -257 -13 -226 -2 -258 0 -258 13 0
13 32 15 258 13 163 -2 257 -7 257 -13z m0 -125 l0 -75 -52 -5 c-58 -6 -89
-26 -99 -65 -15 -59 28 -95 112 -95 l44 0 0 -75 0 -75 -260 0 -260 0 0 230 0
229 128 4 c70 1 186 3 257 2 l130 0 0 -75z m33 -162 l3 -48 -56 0 c-68 0 -95
13 -95 45 0 35 33 53 93 51 l52 -1 3 -47z"/>
<path d="M10940 7450 c0 -5 7 -10 16 -10 8 0 12 5 9 10 -3 6 -10 10 -16 10 -5
0 -9 -4 -9 -10z"/>
<path d="M12522 7768 c-16 -16 -17 -540 -2 -569 10 -18 24 -19 286 -19 l274 0
10 26 c6 14 10 58 10 99 0 55 4 74 15 79 19 7 21 106 3 124 -8 8 -15 56 -18
130 -3 64 -9 123 -13 130 -11 17 -547 18 -565 0z m538 -33 c0 -13 -35 -15
-254 -15 -231 0 -278 4 -259 24 3 3 120 6 260 6 218 0 253 -2 253 -15z m-37
-54 l37 -1 0 -75 0 -75 -37 -1 c-63 -2 -87 -13 -105 -48 -13 -25 -14 -39 -6
-62 13 -38 35 -49 97 -49 l49 0 4 -75 3 -75 -258 2 -258 3 0 225 0 225 83 5
c75 4 293 5 391 1z m72 -231 l0 -45 -57 -3 c-72 -4 -100 10 -96 46 4 35 40 53
103 50 l50 -3 0 -45z"/>
<path d="M12975 7450 c3 -5 10 -10 16 -10 5 0 9 5 9 10 0 6 -7 10 -16 10 -8 0
-12 -4 -9 -10z"/>
<path d="M14380 7761 c-13 -25 -14 -520 0 -555 l10 -26 279 0 c245 0 280 2
285 16 3 9 6 52 6 96 0 65 3 83 18 94 22 16 22 93 -1 128 -13 19 -17 49 -17
130 0 57 -3 111 -6 120 -5 14 -40 16 -285 16 -265 0 -279 -1 -289 -19z m543
-26 c-3 -10 -485 -20 -511 -10 -7 3 -10 9 -7 15 9 14 521 9 518 -5z m-6 -57
c5 -7 9 -42 8 -78 l0 -65 -35 -3 c-86 -6 -120 -31 -120 -85 0 -48 29 -71 99
-77 l56 -5 3 -73 3 -72 -263 2 -263 3 -1 227 -1 227 106 4 c288 8 399 7 408
-5z m44 -201 c7 -15 7 -31 0 -50 -10 -25 -14 -27 -70 -27 -79 0 -111 30 -78
72 14 19 36 25 95 27 35 1 44 -3 53 -22z"/>
<path d="M14840 7450 c0 -5 5 -10 10 -10 6 0 10 5 10 10 0 6 -4 10 -10 10 -5
0 -10 -4 -10 -10z"/>
<path d="M16350 7400 c-36 -24 23 -30 307 -30 285 0 333 5 292 31 -20 12 -580
11 -599 -1z"/>
<path d="M16340 7325 c0 -13 41 -15 310 -15 269 0 310 2 310 15 0 13 -41 15
-310 15 -269 0 -310 -2 -310 -15z"/>
<path d="M16347 7273 c-4 -3 -7 -12 -7 -20 0 -11 55 -13 308 -11 265 3 307 5
307 18 0 13 -41 15 -301 18 -165 1 -303 -1 -307 -5z"/>
<path d="M16340 7195 c0 -13 41 -15 310 -15 269 0 310 2 310 15 0 13 -41 15
-310 15 -269 0 -310 -2 -310 -15z"/>
<path d="M12638 6863 c6 -2 18 -2 25 0 6 3 1 5 -13 5 -14 0 -19 -2 -12 -5z"/>
<path d="M12680 6860 c0 -6 7 -10 15 -10 8 0 15 2 15 4 0 2 -7 6 -15 10 -8 3
-15 1 -15 -4z"/>
<path d="M12738 6853 c12 -2 30 -2 40 0 9 3 -1 5 -23 4 -22 0 -30 -2 -17 -4z"/>
<path d="M10038 6579 c-3 -65 3 -79 40 -79 47 0 62 17 60 68 -2 60 -12 72 -58
72 l-38 0 -4 -61z m61 28 c12 -15 5 -27 -16 -27 -7 0 -13 9 -13 20 0 23 13 26
29 7z m11 -61 c0 -15 -24 -28 -34 -19 -13 14 -5 33 14 33 11 0 20 -6 20 -14z"/>
<path d="M10270 6575 c0 -51 3 -65 15 -65 12 0 15 14 15 65 0 51 -3 65 -15 65
-12 0 -15 -14 -15 -65z"/>
<path d="M12070 6570 l0 -70 38 0 c56 0 66 11 63 66 -3 61 -14 74 -62 74 l-39
0 0 -70z m70 30 c0 -5 -9 -10 -20 -10 -11 0 -20 5 -20 10 0 6 9 10 20 10 11 0
20 -4 20 -10z m0 -55 c0 -8 -9 -15 -20 -15 -11 0 -20 7 -20 15 0 8 9 15 20 15
11 0 20 -7 20 -15z"/>
<path d="M12307 6633 c-9 -8 -9 -96 -1 -117 12 -32 24 -3 24 60 0 59 -6 74
-23 57z"/>
<path d="M14406 6633 c-3 -3 -6 -35 -6 -70 l0 -63 46 0 c50 0 59 22 11 28 -25
3 -27 7 -27 52 0 46 -9 67 -24 53z"/>
<path d="M14516 6625 c4 -8 10 -15 15 -15 5 0 9 7 9 15 0 8 -7 15 -15 15 -9 0
-12 -6 -9 -15z"/>
<path d="M14670 6569 l0 -70 37 3 c28 2 41 9 50 28 15 31 -2 63 -37 68 -12 2
-25 12 -27 23 -11 42 -23 15 -23 -52z m60 -4 c14 -16 6 -35 -16 -35 -8 0 -14
10 -14 25 0 28 12 32 30 10z"/>
<path d="M14787 6633 c-4 -3 -7 -33 -7 -65 0 -45 3 -58 15 -58 12 0 15 14 15
65 0 60 -6 75 -23 58z"/>
<path d="M16400 6618 c-25 -28 -26 -58 0 -91 17 -21 28 -25 66 -24 l45 2 -3
35 c-3 30 -7 35 -30 38 -30 4 -36 -6 -16 -26 10 -10 10 -15 -1 -21 -30 -19
-59 18 -46 58 8 27 34 34 61 16 28 -18 34 -19 34 -4 0 39 -78 51 -110 17z"/>
<path d="M11452 6614 c-9 -17 3 -91 19 -108 13 -15 32 4 18 20 -6 8 -8 25 -5
40 12 48 -12 84 -32 48z"/>
<path d="M13497 6623 c-13 -13 -7 -100 8 -113 21 -17 38 -4 24 21 -6 11 -8 33
-4 48 6 27 -14 59 -28 44z"/>
<path d="M16832 6609 c-8 -22 -1 -94 11 -106 4 -3 14 -3 23 1 13 5 14 9 4 21
-8 9 -10 28 -6 49 5 23 2 37 -9 46 -12 10 -16 8 -23 -11z"/>
<path d="M10177 6593 c-13 -12 -7 -23 13 -23 11 0 20 -5 20 -10 0 -6 -6 -10
-12 -9 -28 3 -38 -2 -38 -21 0 -24 40 -36 69 -20 21 10 22 25 5 78 -4 13 -46
17 -57 5z"/>
<path d="M10328 6593 c-3 -4 -4 -26 -4 -48 1 -36 4 -40 29 -43 41 -5 55 11 48
55 -6 34 -10 38 -38 41 -17 2 -33 -1 -35 -5z m41 -60 c1 -7 -3 -13 -8 -13 -10
0 -21 47 -12 55 6 6 19 -21 20 -42z"/>
<path d="M10427 6593 c-4 -3 -7 -24 -7 -45 0 -27 4 -38 15 -38 10 0 15 10 15
29 0 17 5 33 11 37 14 8 29 -14 29 -44 0 -34 24 -22 27 13 1 16 -3 35 -9 42
-11 13 -70 18 -81 6z"/>
<path d="M10541 6577 c-19 -50 11 -87 59 -72 30 10 25 33 -6 27 -22 -4 -25 -2
-22 19 2 19 8 23 27 21 16 -3 22 1 19 10 -3 7 -19 14 -36 16 -26 3 -34 -1 -41
-21z"/>
<path d="M10652 6588 c-30 -30 -2 -92 38 -86 29 4 49 61 29 84 -14 17 -51 18
-67 2z m44 -38 c0 -11 -5 -19 -11 -18 -10 3 -15 27 -7 41 6 13 19 -2 18 -23z"/>
<path d="M10797 6594 c-4 -4 -2 -13 4 -20 7 -9 6 -19 -3 -34 -11 -17 -11 -22
2 -30 8 -6 26 -9 40 -8 23 3 25 7 25 48 0 43 -1 45 -30 48 -17 2 -34 0 -38 -4z
m43 -50 c0 -13 -4 -24 -10 -24 -5 0 -10 14 -10 31 0 17 4 28 10 24 6 -3 10
-17 10 -31z"/>
<path d="M10901 6581 c-16 -29 -14 -46 9 -66 13 -12 27 -15 45 -11 34 9 32 32
-2 31 -38 0 -38 29 0 33 37 4 29 26 -11 30 -22 2 -34 -2 -41 -17z"/>
<path d="M11012 6588 c-7 -7 -12 -25 -12 -40 0 -48 73 -65 88 -20 2 8 -6 10
-28 5 -29 -5 -31 -4 -28 18 2 18 8 23 26 21 15 -2 22 2 22 12 0 19 -50 22 -68
4z"/>
<path d="M11116 6584 c-21 -21 -20 -47 2 -67 27 -24 59 -21 78 8 15 23 15 27
0 50 -19 29 -56 33 -80 9z m56 -16 c7 -19 -2 -38 -17 -38 -21 0 -28 19 -15 35
15 18 26 19 32 3z"/>
<path d="M11227 6593 c-12 -12 -7 -70 7 -82 7 -6 27 -8 45 -5 29 6 31 9 31 51
0 52 -23 56 -28 5 -5 -46 -32 -43 -32 3 0 33 -8 43 -23 28z"/>
<path d="M11337 6593 c-4 -3 -7 -24 -7 -45 0 -27 4 -38 15 -38 10 0 15 10 15
29 0 17 5 33 11 37 14 8 29 -14 29 -44 0 -15 5 -22 13 -20 17 6 20 29 8 61 -9
22 -17 27 -44 27 -19 0 -37 -3 -40 -7z"/>
<path d="M12205 6591 c-3 -6 -3 -16 0 -21 4 -6 1 -17 -5 -25 -19 -22 5 -45 47
-45 l34 0 -3 48 c-3 45 -5 47 -35 50 -17 2 -34 -2 -38 -7z m41 -41 c0 -11 -4
-20 -8 -20 -4 0 -8 2 -8 4 0 2 -3 11 -6 20 -4 10 -1 16 8 16 7 0 14 -9 14 -20z"/>
<path d="M12360 6578 c0 -13 -1 -34 -2 -48 -3 -23 0 -25 37 -25 34 0 40 3 43
24 2 12 1 34 -2 47 -5 20 -13 24 -41 24 -29 0 -35 -3 -35 -22z m37 -50 c-3 -8
-6 -5 -6 6 -1 11 2 17 5 13 3 -3 4 -12 1 -19z"/>
<path d="M12460 6556 c0 -33 4 -46 14 -46 9 0 16 12 18 32 4 46 28 49 28 4 0
-26 4 -36 16 -36 12 0 14 9 12 43 -3 42 -3 42 -45 45 l-43 3 0 -45z"/>
<path d="M12582 6588 c-27 -27 -5 -88 32 -88 24 0 51 22 39 33 -3 4 -17 4 -30
1 -22 -6 -24 -4 -21 17 2 20 8 23 32 21 19 -2 27 1 24 10 -6 17 -60 22 -76 6z"/>
<path d="M12692 6588 c-7 -7 -12 -24 -12 -38 0 -32 17 -50 46 -50 26 0 50 25
34 35 -6 4 -17 2 -25 -5 -18 -15 -27 2 -16 32 7 17 10 18 10 6 1 -20 26 -24
36 -8 18 29 -47 54 -73 28z"/>
<path d="M12837 6594 c-13 -14 -7 -24 16 -25 l22 0 -22 -11 c-46 -22 -29 -57
27 -54 23 1 25 5 25 46 0 43 -1 45 -30 48 -17 2 -34 0 -38 -4z m38 -53 c3 -5
1 -12 -5 -16 -5 -3 -10 1 -10 9 0 18 6 21 15 7z"/>
<path d="M12942 6588 c-7 -7 -12 -25 -12 -40 0 -48 73 -65 88 -20 2 8 -6 10
-27 6 -27 -6 -31 -4 -31 15 0 16 6 21 25 21 16 0 25 6 25 15 0 18 -50 21 -68
3z"/>
<path d="M13044 6576 c-15 -24 -15 -28 0 -51 17 -25 31 -30 60 -19 27 10 19
32 -10 26 -22 -4 -25 -2 -22 19 2 19 8 23 27 21 16 -3 22 1 19 10 -3 7 -16 14
-31 16 -19 2 -30 -4 -43 -22z"/>
<path d="M13150 6579 c-27 -49 20 -96 69 -69 24 12 29 58 9 78 -20 20 -66 15
-78 -9z m58 -27 c2 -14 -2 -22 -12 -22 -19 0 -29 17 -22 36 8 22 30 12 34 -14z"/>
<path d="M13260 6561 c0 -46 15 -61 55 -57 28 3 30 6 33 50 2 35 0 46 -12 46
-9 0 -16 -12 -18 -32 -4 -46 -28 -49 -28 -4 0 25 -4 36 -15 36 -11 0 -15 -11
-15 -39z"/>
<path d="M13377 6594 c-4 -4 -7 -25 -7 -46 0 -48 27 -54 32 -6 4 43 26 48 30
7 2 -18 9 -34 16 -37 10 -3 12 7 10 39 -3 42 -4 44 -38 47 -20 2 -39 0 -43 -4z"/>
<path d="M14512 6553 c2 -27 8 -48 13 -48 6 0 11 21 13 48 3 38 0 47 -13 47
-13 0 -16 -9 -13 -47z"/>
<path d="M14566 6560 c-8 -52 -3 -60 39 -60 41 0 45 5 36 55 -6 36 -10 40 -37
43 -30 3 -32 1 -38 -38z m42 -15 c1 -14 -3 -25 -8 -25 -6 0 -10 4 -10 9 0 5
-3 16 -6 25 -4 10 -1 16 8 16 7 0 15 -11 16 -25z"/>
<path d="M14840 6579 c-26 -47 26 -101 65 -69 18 15 20 61 3 78 -19 19 -56 14
-68 -9z m50 -34 c0 -14 -4 -25 -10 -25 -5 0 -10 11 -10 25 0 14 5 25 10 25 6
0 10 -11 10 -25z"/>
<path d="M16534 6586 c-3 -8 -4 -29 -2 -47 4 -42 28 -52 28 -11 0 16 7 35 15
42 8 7 15 16 15 21 0 15 -50 10 -56 -5z"/>
<path d="M16615 6591 c-3 -6 -4 -15 0 -20 3 -5 1 -12 -5 -16 -19 -12 -11 -44
13 -50 49 -11 62 -1 62 46 0 42 -1 44 -32 47 -17 2 -34 -2 -38 -7z m38 -64
c-9 -15 -23 5 -19 26 7 34 7 34 15 7 5 -14 6 -28 4 -33z"/>
<path d="M16717 6594 c-4 -4 -7 -25 -7 -46 0 -48 27 -54 32 -6 4 45 26 48 30
3 4 -50 23 -44 23 8 0 41 -1 42 -35 45 -20 2 -39 0 -43 -4z"/>
<path d="M14162 6323 c4 -85 23 -86 23 -1 0 41 -4 63 -13 66 -10 3 -12 -12
-10 -65z"/>
<path d="M13940 6315 l0 -65 33 0 c42 0 57 15 57 57 0 29 -4 34 -30 40 -16 3
-30 12 -30 19 0 8 -7 14 -15 14 -12 0 -15 -14 -15 -65z m65 -15 c0 -8 -8 -16
-17 -18 -13 -2 -18 3 -18 18 0 15 5 20 18 18 9 -2 17 -10 17 -18z"/>
<path d="M15347 6373 c-11 -10 -8 -82 3 -104 6 -10 17 -19 25 -19 17 0 20 16
4 25 -6 4 -8 22 -4 44 4 26 2 41 -8 49 -8 7 -17 9 -20 5z"/>
<path d="M16944 6368 c-11 -17 -5 -90 8 -105 16 -20 42 -17 32 5 -4 9 -8 33
-9 52 -3 54 -4 60 -14 60 -6 0 -13 -5 -17 -12z"/>
<path d="M14067 6343 c-13 -12 -7 -23 11 -23 12 0 18 -8 20 -25 1 -14 -3 -25
-8 -25 -6 0 -9 6 -7 13 1 6 -5 12 -13 12 -8 0 -15 -9 -15 -20 0 -17 7 -20 40
-20 33 0 41 4 43 21 5 37 -15 74 -41 74 -13 0 -27 -3 -30 -7z"/>
<path d="M14217 6343 c-13 -12 -7 -23 12 -23 22 0 36 -29 21 -44 -7 -7 -10 -5
-10 7 0 9 -7 17 -16 17 -10 0 -14 -7 -12 -22 2 -19 9 -23 38 -23 32 0 35 3 38
33 2 18 -2 40 -9 48 -12 14 -51 19 -62 7z"/>
<path d="M14314 6337 c-9 -24 0 -80 14 -85 8 -2 12 8 12 32 0 19 5 38 10 41
10 6 14 -1 24 -47 10 -46 27 -32 24 20 -3 47 -3 47 -41 50 -26 2 -39 -1 -43
-11z"/>
<path d="M14436 6335 c-42 -42 1 -101 58 -79 27 10 18 24 -15 24 -24 0 -30 4
-27 18 2 10 14 18 31 20 16 2 27 8 24 15 -6 19 -53 20 -71 2z"/>
<path d="M14542 6338 c-17 -17 -15 -63 2 -78 8 -6 25 -10 38 -8 28 4 48 59 28
83 -15 18 -51 20 -68 3z m43 -39 c8 -23 1 -34 -14 -24 -13 8 -15 45 -2 45 5 0
13 -9 16 -21z"/>
<path d="M14687 6343 c-14 -13 -7 -23 16 -23 15 0 23 -6 24 -20 1 -11 -2 -22
-8 -25 -5 -4 -9 1 -9 10 0 9 -6 15 -12 13 -7 -3 -13 -13 -13 -24 0 -15 7 -19
35 -19 32 0 35 3 38 33 2 18 -2 40 -9 48 -12 14 -51 19 -62 7z"/>
<path d="M14788 6325 c-8 -19 -8 -31 0 -51 10 -21 18 -25 44 -22 42 4 50 28 9
28 -24 0 -31 4 -31 20 0 16 7 20 31 20 27 0 30 2 19 15 -20 24 -59 19 -72 -10z"/>
<path d="M14902 6338 c-7 -7 -12 -24 -12 -38 0 -14 5 -31 12 -38 17 -17 53
-15 69 4 11 14 10 16 -11 13 -14 -2 -30 0 -37 4 -21 13 -2 37 29 37 26 0 29 2
18 15 -15 18 -51 20 -68 3z"/>
<path d="M15005 6330 c-24 -27 -13 -68 22 -76 34 -9 57 6 61 40 6 53 -47 76
-83 36z m55 -45 c-10 -12 -16 -13 -26 -4 -8 6 -14 17 -14 24 0 19 23 25 39 9
12 -11 12 -16 1 -29z"/>
<path d="M15112 6304 l3 -49 40 0 40 0 3 48 c2 37 0 47 -12 47 -12 0 -16 -10
-16 -35 0 -46 -27 -49 -32 -3 -2 17 -9 33 -16 36 -10 3 -12 -8 -10 -44z"/>
<path d="M15224 6337 c-8 -23 0 -82 11 -82 6 0 11 11 13 25 6 49 12 57 28 36
8 -11 14 -30 14 -43 0 -13 5 -23 11 -23 6 0 9 19 7 48 -3 47 -3 47 -41 50 -26
2 -39 -1 -43 -11z"/>
<path d="M16287 6343 c-14 -13 -6 -25 13 -20 11 3 22 1 25 -4 3 -4 -6 -11 -20
-15 -19 -5 -25 -12 -23 -28 2 -16 11 -22 41 -24 37 -3 37 -3 37 35 0 22 -5 44
-12 51 -13 13 -50 16 -61 5z m43 -64 c0 -5 -4 -9 -10 -9 -5 0 -10 7 -10 16 0
8 5 12 10 9 6 -3 10 -10 10 -16z"/>
<path d="M16388 6325 c-22 -49 15 -88 66 -69 26 10 18 24 -14 24 -23 0 -30 4
-30 20 0 16 7 20 31 20 27 0 30 2 19 15 -20 24 -59 19 -72 -10z"/>
<path d="M16502 6338 c-16 -16 -15 -63 2 -78 18 -14 58 -10 64 8 3 9 -3 13
-14 11 -11 -2 -24 0 -31 4 -19 12 -3 37 24 37 15 0 23 5 21 13 -6 17 -50 21
-66 5z"/>
<path d="M16605 6330 c-24 -27 -13 -68 22 -76 34 -9 57 6 61 40 6 53 -47 76
-83 36z m55 -15 c10 -12 10 -18 0 -31 -12 -13 -15 -13 -28 0 -15 15 -10 46 6
46 5 0 15 -7 22 -15z"/>
<path d="M16710 6306 c0 -40 3 -46 24 -52 48 -12 61 -2 64 49 2 37 0 47 -12
47 -12 0 -16 -10 -16 -35 0 -46 -27 -49 -32 -3 -5 52 -28 47 -28 -6z"/>
<path d="M16824 6337 c-8 -23 0 -82 11 -82 6 0 11 14 13 30 2 17 8 34 12 39
10 10 14 2 24 -46 10 -46 27 -32 24 20 -3 47 -3 47 -41 50 -26 2 -39 -1 -43
-11z"/>
<path d="M12640 5154 c-74 -40 -141 -83 -149 -94 -20 -30 -7 -66 29 -79 l31
-10 -3 -138 c-3 -127 -4 -138 -21 -135 -26 5 -47 -16 -47 -47 0 -51 3 -51 322
-51 l298 0 12 25 c15 33 -13 79 -43 70 -18 -6 -19 0 -19 139 0 135 1 146 18
146 11 0 27 9 38 21 32 36 5 62 -158 150 -82 43 -154 79 -160 78 -7 0 -74 -34
-148 -75z m289 -30 c132 -69 164 -91 155 -105 -7 -13 -561 -11 -569 1 -3 5 5
20 19 33 28 27 234 136 255 137 8 0 71 -30 140 -66z m-294 -289 l0 -140 -25 0
-25 0 -3 129 c-1 72 0 136 3 144 3 7 15 12 27 10 23 -3 23 -5 23 -143z m90 0
l0 -140 -25 0 -25 0 -3 129 c-1 72 0 136 3 144 3 7 15 12 27 10 23 -3 23 -5
23 -143z m100 0 l0 -140 -28 0 -28 0 0 130 c0 72 0 136 0 143 1 9 11 12 29 10
l27 -3 0 -140z m95 -1 l0 -145 -27 3 -28 3 -3 129 c-1 72 0 136 2 143 3 7 17
13 31 13 l25 0 0 -146z m95 1 l0 -140 -27 -3 -28 -3 0 146 0 146 28 -3 27 -3
0 -140z m65 -190 c0 -13 -37 -15 -274 -15 -231 0 -275 2 -286 15 -11 13 20 15
274 15 248 0 286 -2 286 -15z"/>
<path d="M10450 5070 c-18 -18 -20 -33 -20 -188 0 -151 2 -171 18 -185 16 -15
52 -17 300 -17 279 0 281 0 296 22 13 18 16 54 16 185 0 150 -2 165 -20 183
-19 19 -33 20 -295 20 -262 0 -276 -1 -295 -20z m568 -32 c18 -18 17 -302 -2
-317 -9 -8 -91 -11 -277 -9 l-264 3 -3 168 -2 167 268 0 c195 0 271 -3 280
-12z"/>
<path d="M10885 5010 c-7 -12 2 -30 16 -30 12 0 12 27 0 35 -5 3 -12 1 -16 -5z"/>
<path d="M10962 4999 c2 -6 8 -10 13 -10 5 0 11 4 13 10 2 6 -4 11 -13 11 -9
0 -15 -5 -13 -11z"/>
<path d="M10521 4924 c-26 -33 -26 -49 -1 -74 24 -24 48 -25 78 -4 44 30 16
104 -39 104 -10 0 -27 -12 -38 -26z m65 -25 c8 -14 -21 -43 -35 -35 -6 4 -11
16 -11 27 0 21 34 27 46 8z"/>
<path d="M10512 4768 c3 -7 21 -14 41 -16 28 -2 37 1 37 12 0 12 -11 16 -41
16 -28 0 -39 -4 -37 -12z"/>
<path d="M10642 4768 c3 -7 21 -14 41 -16 28 -2 37 1 37 12 0 12 -11 16 -41
16 -28 0 -39 -4 -37 -12z"/>
<path d="M10772 4768 c3 -7 21 -14 41 -16 28 -2 37 1 37 12 0 12 -11 16 -41
16 -28 0 -39 -4 -37 -12z"/>
<path d="M10902 4768 c5 -15 67 -18 71 -3 1 6 -15 11 -37 13 -28 3 -37 0 -34
-10z"/>
<path d="M9862 4003 c2 -42 8 -68 16 -71 7 -2 12 5 12 17 0 15 6 21 23 21 44
0 74 59 45 88 -7 7 -32 12 -55 12 l-44 0 3 -67z m73 22 c0 -13 -8 -21 -22 -23
-17 -3 -23 2 -23 16 0 10 3 22 7 26 13 13 38 1 38 -19z"/>
<path d="M10690 4060 c0 -5 7 -10 16 -10 8 0 12 5 9 10 -3 6 -10 10 -16 10 -5
0 -9 -4 -9 -10z"/>
<path d="M11910 4000 c0 -54 3 -70 14 -70 8 0 16 10 18 22 2 16 12 24 32 28
39 7 53 31 38 64 -10 22 -18 26 -57 26 l-45 0 0 -70z m75 25 c0 -13 -8 -21
-22 -23 -17 -3 -23 2 -23 16 0 10 3 22 7 26 13 13 38 1 38 -19z"/>
<path d="M12742 4059 c2 -6 8 -10 13 -10 5 0 11 4 13 10 2 6 -4 11 -13 11 -9
0 -15 -5 -13 -11z"/>
<path d="M10581 4042 c-6 -12 -7 -37 -3 -63 6 -36 12 -45 31 -47 20 -3 21 -1
12 17 -15 26 -14 58 1 63 8 3 5 12 -9 27 -21 22 -21 23 -32 3z"/>
<path d="M12632 4039 c-9 -13 -10 -25 -3 -32 5 -7 11 -25 13 -42 2 -18 10 -31
19 -33 14 -2 16 6 14 52 -4 77 -18 95 -43 55z"/>
<path d="M13005 4040 c-13 -14 -15 -23 -7 -32 6 -7 12 -26 14 -43 2 -23 9 -31
26 -33 23 -4 23 -3 6 23 -15 22 -15 29 -4 51 12 21 11 27 -1 40 -14 13 -17 12
-34 -6z"/>
<path d="M13651 4047 c-15 -19 0 -97 21 -111 24 -15 31 -3 17 27 -9 21 -9 30
0 41 10 11 9 19 -1 35 -15 24 -22 26 -37 8z"/>
<path d="M10947 4036 c-6 -14 6 -76 17 -95 7 -11 36 -16 36 -6 0 3 -6 14 -12
25 -10 16 -10 24 0 41 10 16 10 24 1 35 -15 18 -35 18 -42 0z"/>
<path d="M11606 4041 c-10 -16 7 -103 21 -108 20 -8 25 1 14 29 -5 14 -5 31 0
40 17 30 -18 68 -35 39z"/>
<path d="M10244 4033 c-56 -4 -64 -14 -64 -76 0 -39 24 -30 30 12 3 17 8 32
13 31 4 0 12 0 17 0 6 0 10 -13 10 -29 0 -17 5 -33 10 -36 6 -4 10 10 10 34 0
30 4 41 15 41 8 0 16 -8 16 -17 1 -10 2 -22 4 -28 1 -5 3 -16 3 -22 1 -7 7
-13 12 -13 16 0 12 77 -6 94 -8 9 -16 15 -17 14 -1 -1 -25 -3 -53 -5z"/>
<path d="M10364 4015 c-22 -34 -11 -73 22 -81 30 -8 40 0 49 43 5 25 2 34 -17
47 -30 21 -35 20 -54 -9z m40 -21 c9 -23 7 -46 -3 -40 -11 7 -21 56 -11 56 4
0 11 -7 14 -16z"/>
<path d="M12425 4026 c-11 -8 -16 -23 -13 -45 7 -71 73 -67 73 4 0 29 -5 39
-22 46 -13 5 -27 3 -38 -5z m33 -46 c0 -16 -4 -30 -9 -30 -5 0 -9 14 -9 30 0
17 4 30 8 30 5 0 9 -13 10 -30z"/>
<path d="M12918 4029 c-24 -14 -22 -33 5 -52 l22 -16 -22 0 c-31 -1 -29 -19 2
-27 24 -6 55 9 55 27 0 4 -10 17 -22 29 -18 17 -19 20 -5 20 21 0 22 16 1 24
-19 7 -15 8 -36 -5z"/>
<path d="M13367 4033 c-4 -3 -30 -6 -58 -4 l-50 2 3 -48 c4 -57 22 -64 26 -10
4 46 25 45 32 -2 7 -45 24 -44 28 2 4 49 26 44 30 -7 4 -51 28 -42 25 10 -3
38 -23 71 -36 57z"/>
<path d="M13447 4022 c-21 -23 -22 -56 -1 -76 26 -27 49 -19 63 21 13 34 12
38 -9 55 -28 22 -33 22 -53 0z m42 -62 c1 -12 -1 -12 -14 1 -10 10 -13 22 -9
34 7 18 8 18 15 -1 4 -10 8 -26 8 -34z"/>
<path d="M9990 4021 c0 -5 9 -13 20 -16 13 -4 20 -15 20 -31 0 -24 -14 -32
-25 -14 -9 15 -25 12 -25 -4 0 -17 15 -23 55 -22 28 1 30 3 27 36 -2 19 -9 41
-14 48 -12 14 -58 17 -58 3z"/>
<path d="M10080 4021 c0 -5 7 -25 16 -46 14 -34 14 -39 -2 -56 -16 -18 -16
-19 5 -19 14 0 25 9 32 28 6 15 17 41 25 59 8 20 10 35 4 38 -6 4 -14 -5 -20
-19 -12 -32 -18 -33 -30 -1 -9 24 -30 35 -30 16z"/>
<path d="M10460 3981 c0 -59 12 -66 26 -15 11 44 27 45 34 3 3 -18 11 -34 18
-37 10 -3 12 8 10 44 l-3 49 -42 3 -43 3 0 -50z"/>
<path d="M10688 4024 c-8 -7 2 -76 12 -88 10 -10 19 20 17 58 -2 28 -16 43
-29 30z"/>
<path d="M10740 3980 c0 -59 21 -66 30 -11 3 17 10 32 15 32 6 0 12 -15 15
-32 3 -18 11 -34 18 -37 10 -3 12 8 10 44 l-3 49 -42 3 -43 3 0 -51z"/>
<path d="M10853 4013 c-4 -10 2 -23 16 -35 l23 -18 -22 0 c-28 0 -21 -24 9
-28 22 -4 51 13 51 29 0 5 -9 18 -20 29 -16 16 -17 20 -5 20 8 0 15 5 15 10 0
17 -60 11 -67 -7z"/>
<path d="M11024 4016 c-8 -22 0 -81 11 -81 6 0 11 12 13 27 2 14 10 32 18 38
8 7 14 16 14 21 0 15 -50 10 -56 -5z"/>
<path d="M11097 4023 c-10 -9 -8 -56 3 -73 5 -8 25 -15 45 -16 l35 -1 0 49 c0
57 -22 63 -30 9 -7 -44 -24 -44 -28 2 -3 35 -11 45 -25 30z"/>
<path d="M11212 3982 c3 -54 21 -63 25 -13 3 39 7 46 22 36 6 -3 11 -22 11
-41 0 -48 28 -46 32 3 4 53 28 56 28 3 0 -50 23 -51 28 -1 5 48 -9 58 -84 59
l-65 1 3 -47z"/>
<path d="M11386 4014 c-18 -48 4 -88 45 -82 27 4 43 51 28 80 -12 23 -64 25
-73 2z m46 -29 c6 -27 0 -38 -13 -29 -12 7 -12 54 0 54 5 0 11 -11 13 -25z"/>
<path d="M11489 4013 c-1 -10 -2 -31 -3 -47 -2 -45 22 -44 26 1 4 52 32 53 36
1 4 -48 32 -54 32 -7 0 49 -16 69 -55 69 -26 0 -35 -4 -36 -17z"/>
<path d="M12045 4009 c4 -13 1 -27 -10 -40 -17 -18 -17 -19 1 -26 10 -3 32 -7
48 -7 27 1 31 4 28 25 -7 62 -11 69 -43 69 -26 0 -29 -3 -24 -21z m35 -36 c0
-22 -2 -25 -10 -13 -13 20 -13 40 0 40 6 0 10 -12 10 -27z"/>
<path d="M12130 4020 c0 -5 8 -25 17 -44 16 -34 16 -37 -3 -57 -19 -21 -19
-21 5 -18 20 3 30 16 47 61 12 31 19 59 16 62 -11 12 -22 5 -22 -13 0 -30 -16
-33 -28 -6 -11 25 -32 34 -32 15z"/>
<path d="M12240 3979 c0 -31 4 -48 10 -44 6 3 10 16 10 28 1 56 35 60 42 4 2
-15 7 -26 13 -25 5 2 8 12 7 24 -2 11 4 26 12 33 17 15 22 8 28 -37 4 -30 22
-29 26 2 6 50 -11 64 -83 65 l-65 1 0 -51z"/>
<path d="M12514 4016 c-9 -23 0 -79 14 -84 8 -2 12 8 12 32 0 38 17 57 31 35
5 -8 9 -27 9 -42 0 -19 4 -27 13 -24 12 4 14 54 3 82 -7 20 -75 20 -82 1z"/>
<path d="M12738 4023 c-2 -4 -3 -26 -2 -48 1 -27 6 -40 15 -40 18 0 20 86 2
92 -6 2 -13 0 -15 -4z"/>
<path d="M12790 3979 c0 -60 23 -65 28 -5 4 46 25 43 32 -5 3 -21 11 -34 20
-34 11 0 14 10 11 40 -4 53 -6 55 -52 55 l-39 0 0 -51z"/>
<path d="M13074 4016 c-3 -8 -4 -29 -2 -47 4 -42 28 -52 28 -11 0 16 7 35 15
42 8 7 15 16 15 21 0 15 -50 10 -56 -5z"/>
<path d="M13152 3983 l3 -48 40 0 40 0 -1 44 c-1 53 -21 67 -26 19 -3 -36 -32
-47 -34 -13 -1 11 -2 26 -3 33 -1 6 -6 12 -12 12 -6 0 -9 -19 -7 -47z"/>
<path d="M13540 3979 c0 -36 4 -49 13 -47 6 3 12 18 12 34 1 43 33 46 37 2 2
-18 8 -32 13 -30 10 3 10 54 0 80 -2 6 -20 12 -40 12 l-35 0 0 -51z"/>
<path d="M10023 3809 c-17 -21 -55 -121 -48 -128 4 -3 11 2 16 12 12 21 65 23
73 2 3 -8 10 -15 15 -15 11 0 2 34 -26 99 -15 34 -21 40 -30 30z m21 -54 c3
-9 -1 -18 -10 -22 -19 -7 -26 0 -18 21 8 20 20 21 28 1z"/>
<path d="M10170 3800 c0 -14 -7 -20 -23 -20 -31 0 -47 -18 -47 -52 0 -30 23
-48 64 -48 26 0 26 1 24 70 -1 39 -5 70 -10 70 -4 0 -8 -9 -8 -20z m-10 -70
c0 -33 -11 -38 -30 -15 -15 18 -6 45 15 45 10 0 15 -10 15 -30z"/>
<path d="M10580 3811 c0 -6 5 -13 10 -16 6 -3 10 1 10 9 0 9 -4 16 -10 16 -5
0 -10 -4 -10 -9z"/>
<path d="M11080 3800 c0 -15 -7 -20 -25 -20 -34 0 -53 -39 -37 -75 9 -20 19
-25 47 -25 l35 0 0 70 c0 40 -4 70 -10 70 -5 0 -10 -9 -10 -20z m-2 -64 c2
-10 -1 -23 -7 -29 -16 -16 -44 14 -35 37 8 22 38 17 42 -8z"/>
<path d="M11500 3805 c0 -8 -16 -21 -35 -29 -29 -12 -35 -20 -35 -45 0 -34 22
-51 64 -51 25 0 26 2 26 70 0 40 -4 70 -10 70 -5 0 -10 -7 -10 -15z m-5 -55
c8 -13 -4 -50 -16 -50 -13 0 -22 27 -15 45 6 17 22 20 31 5z"/>
<path d="M12087 3813 c-4 -3 -7 -35 -7 -70 0 -62 0 -63 28 -63 63 0 92 26 61
57 -8 8 -8 17 0 31 8 15 6 23 -8 36 -18 16 -62 22 -74 9z m58 -33 c0 -8 -8
-16 -17 -18 -13 -2 -18 3 -18 18 0 15 5 20 18 18 9 -2 17 -10 17 -18z m3 -63
c2 -11 -3 -17 -16 -17 -20 0 -36 23 -24 34 11 12 37 1 40 -17z"/>
<path d="M12400 3811 c0 -6 5 -13 10 -16 6 -3 10 1 10 9 0 9 -4 16 -10 16 -5
0 -10 -4 -10 -9z"/>
<path d="M13495 3788 c-3 -7 -2 -33 3 -58 5 -32 13 -46 26 -48 13 -3 16 0 10
9 -4 8 -8 34 -9 58 0 43 -19 68 -30 39z"/>
<path d="M10200 3775 c0 -3 9 -24 21 -46 19 -39 20 -42 3 -60 -18 -20 -14 -36
6 -24 22 13 66 135 49 135 -5 0 -11 -11 -15 -25 -3 -14 -9 -25 -13 -25 -4 0
-14 11 -21 25 -12 22 -30 34 -30 20z"/>
<path d="M10317 3762 c-32 -36 -15 -82 30 -82 28 0 30 16 3 23 -13 3 -20 14
-20 30 0 37 17 42 33 11 9 -16 17 -23 21 -16 9 15 -15 52 -35 52 -9 0 -23 -8
-32 -18z"/>
<path d="M10410 3740 c0 -22 0 -43 -1 -47 0 -4 4 -9 10 -11 5 -2 11 14 13 35
4 52 32 53 36 1 4 -45 18 -50 24 -9 7 50 -7 71 -47 71 -34 0 -35 -1 -35 -40z"/>
<path d="M10587 3741 c-4 -24 -5 -46 -2 -49 11 -11 16 8 13 49 l-3 44 -8 -44z"/>
<path d="M10633 3764 c-4 -11 3 -23 18 -35 l24 -19 -22 -6 c-13 -3 -20 -10
-17 -15 8 -14 40 -10 54 6 11 13 9 20 -10 40 -13 14 -18 25 -12 25 7 0 12 5
12 10 0 17 -40 11 -47 -6z"/>
<path d="M10723 3763 c-4 -10 2 -23 15 -34 26 -20 28 -29 7 -29 -8 0 -15 -4
-15 -10 0 -11 20 -13 44 -4 23 9 20 30 -6 49 -16 12 -19 19 -10 22 19 7 14 23
-8 23 -11 0 -23 -7 -27 -17z"/>
<path d="M10812 3733 l3 -48 40 0 c26 0 40 4 39 13 -1 6 -2 28 -2 47 -2 41
-22 48 -22 8 0 -16 -4 -34 -9 -42 -14 -22 -31 -3 -31 35 0 19 -5 34 -11 34 -6
0 -9 -19 -7 -47z"/>
<path d="M10926 3761 c-28 -31 -6 -80 37 -81 24 0 21 17 -4 23 -15 4 -20 12
-17 28 3 26 28 39 28 15 0 -9 5 -16 10 -16 11 0 13 11 4 34 -8 22 -37 20 -58
-3z"/>
<path d="M11177 3759 c-26 -37 8 -91 49 -75 17 6 16 8 -6 19 -33 16 -34 52 -2
51 28 -1 23 20 -5 24 -13 2 -27 -6 -36 -19z"/>
<path d="M11298 3764 c26 -18 30 -64 6 -64 -10 0 -14 6 -10 15 3 9 0 15 -10
15 -15 0 -31 -27 -20 -37 3 -3 24 -7 46 -8 43 -3 41 -9 25 70 -4 19 -12 25
-32 25 l-27 0 22 -16z"/>
<path d="M11370 3730 c0 -27 5 -50 10 -50 6 0 10 12 10 28 0 15 7 38 16 50 14
21 14 22 -10 22 -24 0 -26 -3 -26 -50z"/>
<path d="M12206 3773 c-9 -10 -7 -52 4 -73 7 -12 21 -18 45 -18 l36 0 -3 46
c-4 57 -25 68 -30 16 -4 -50 -28 -58 -28 -10 0 34 -11 52 -24 39z"/>
<path d="M12313 3763 c-4 -10 3 -24 21 -40 l27 -23 -27 0 c-21 0 -25 -3 -17
-11 15 -15 63 -3 63 15 0 7 -7 19 -15 26 -9 7 -13 21 -10 31 5 14 1 19 -15 19
-11 0 -23 -7 -27 -17z"/>
<path d="M12450 3730 c0 -27 5 -50 10 -50 6 0 10 18 10 40 0 29 4 40 15 40 15
0 16 -4 19 -49 2 -43 26 -37 26 6 0 46 -14 63 -52 63 -27 0 -28 -2 -28 -50z"/>
<path d="M12558 3756 c-16 -37 3 -76 37 -76 30 0 33 15 5 23 -14 3 -20 14 -20
31 0 30 14 34 29 9 5 -10 13 -14 17 -10 12 12 -10 42 -34 45 -15 2 -25 -4 -34
-22z"/>
<path d="M12667 3773 c-14 -13 -6 -41 16 -56 l22 -16 -22 0 c-13 -1 -23 -6
-23 -12 0 -6 12 -9 27 -7 34 4 42 33 16 54 -13 11 -14 17 -5 20 6 3 12 10 12
15 0 10 -33 12 -43 2z"/>
<path d="M12752 3768 c-9 -9 -6 -18 15 -40 26 -28 27 -28 4 -28 -12 0 -19 -4
-16 -10 9 -15 41 -12 56 6 11 14 10 19 -11 37 -16 13 -21 21 -12 24 6 3 12 9
12 14 0 13 -34 11 -48 -3z"/>
<path d="M12890 3770 c0 -5 7 -10 15 -10 10 0 15 -10 15 -30 0 -16 -4 -30 -10
-30 -5 0 -10 7 -10 15 0 20 -19 19 -27 -1 -8 -21 15 -34 52 -30 28 3 30 6 27
37 -2 19 -9 40 -14 47 -12 14 -48 16 -48 2z"/>
<path d="M12986 3764 c-20 -20 -20 -34 0 -62 10 -14 24 -22 37 -20 28 4 33 25
5 24 -33 -1 -33 48 0 52 12 2 20 8 17 13 -9 14 -42 11 -59 -7z"/>
<path d="M13078 3755 c-16 -35 3 -75 36 -75 14 0 28 5 31 10 3 6 -3 10 -13 10
-11 0 -25 6 -31 14 -17 20 -2 46 26 46 13 0 21 4 18 10 -13 20 -55 11 -67 -15z"/>
<path d="M13182 3768 c-7 -7 -12 -24 -12 -38 0 -52 61 -71 82 -25 21 46 -36
97 -70 63z m48 -23 c10 -12 10 -18 0 -30 -7 -8 -16 -15 -20 -15 -4 0 -10 7
-14 15 -6 17 2 45 14 45 4 0 13 -7 20 -15z"/>
<path d="M13282 3733 c3 -48 3 -48 41 -50 l37 -1 0 49 c0 27 -4 49 -10 49 -5
0 -10 -12 -10 -27 0 -16 -4 -34 -9 -42 -14 -22 -31 -3 -31 35 0 19 -5 34 -11
34 -6 0 -9 -19 -7 -47z"/>
<path d="M13389 3778 c0 -2 -3 -25 -5 -51 -4 -37 -2 -48 8 -45 7 3 14 21 16
41 4 50 30 50 34 0 4 -51 28 -56 28 -6 0 46 -14 63 -52 63 -15 0 -28 -1 -29
-2z"/>
<path d="M12400 3732 c0 -38 7 -55 19 -47 10 5 0 85 -10 85 -5 0 -9 -17 -9
-38z"/>
<path d="M10520 3730 c0 -5 9 -10 20 -10 11 0 20 5 20 10 0 6 -9 10 -20 10
-11 0 -20 -4 -20 -10z"/>
<path d="M17668 3103 c-3 -12 -1 -24 6 -26 8 -3 10 -54 9 -175 l-3 -172 23 1
c12 0 16 3 10 6 -10 3 -13 46 -14 161 0 99 -5 170 -13 192 -11 30 -13 32 -18
13z"/>
<path d="M9674 2900 c0 -96 2 -136 3 -87 2 48 2 126 0 175 -1 48 -3 8 -3 -88z"/>
<path d="M9660 2700 c-8 -41 -6 -161 3 -167 6 -3 7 -1 3 5 -4 7 -3 12 3 12 10
0 8 31 -3 49 -4 5 -3 11 1 13 5 1 5 26 2 53 -3 28 -7 43 -9 35z"/>
<path d="M17665 2670 c3 -5 8 -10 11 -10 2 0 4 5 4 10 0 6 -5 10 -11 10 -5 0
-7 -4 -4 -10z"/>
<path d="M9661 2504 c0 -11 3 -14 6 -6 3 7 2 16 -1 19 -3 4 -6 -2 -5 -13z"/>
<path d="M9659 2473 c0 -5 -2 -18 -3 -31 -2 -13 1 -25 5 -28 5 -3 8 11 7 31
-1 31 -7 48 -9 28z"/>
<path d="M1068 2438 c-2 -13 -2 -80 0 -149 3 -117 5 -127 23 -132 11 -3 22 0
25 7 2 6 3 75 2 151 -3 135 -4 140 -25 143 -16 2 -22 -3 -25 -20z"/>
<path d="M262 2441 c-9 -6 -12 -41 -10 -142 l3 -134 54 -3 c73 -4 101 4 101
28 0 17 -7 20 -54 20 l-53 0 -6 111 c-6 113 -12 134 -35 120z"/>
<path d="M1266 2442 c-3 -5 -8 -68 -12 -140 l-7 -132 96 0 c97 0 119 8 97 35
-9 10 -33 15 -77 15 l-64 0 3 33 c3 32 3 32 51 29 48 -4 77 9 77 34 0 9 -19
14 -62 16 -63 3 -63 3 -63 33 l0 30 68 3 c57 2 67 6 67 21 0 11 -10 21 -22 25
-34 9 -146 7 -152 -2z"/>
<path d="M1810 2426 c0 -20 5 -26 21 -26 15 0 20 5 17 22 -5 34 -38 37 -38 4z"/>
<path d="M1909 2391 c-6 -17 -15 -28 -20 -25 -5 3 -12 -2 -16 -12 -4 -10 0
-20 10 -26 13 -7 17 -24 17 -68 0 -47 4 -64 20 -80 21 -21 64 -27 74 -11 9 15
-4 40 -25 46 -15 5 -19 16 -19 56 0 42 3 49 20 49 13 0 20 7 20 20 0 18 -9 24
-27 18 -4 -2 -10 10 -13 26 -7 41 -28 44 -41 7z"/>
<path d="M1690 2385 c-5 -14 -14 -25 -20 -25 -16 0 -12 -30 5 -36 11 -5 15
-22 15 -63 0 -67 14 -91 55 -94 36 -3 50 31 16 40 -18 4 -21 13 -21 55 0 41 3
51 20 55 11 3 20 13 20 23 0 10 -9 20 -20 23 -12 3 -20 14 -20 26 0 31 -38 28
-50 -4z"/>
<path d="M9662 2380 c0 -14 2 -19 5 -12 2 6 2 18 0 25 -3 6 -5 1 -5 -13z"/>
<path d="M487 2359 c-23 -14 -47 -62 -47 -97 0 -39 32 -78 76 -92 29 -10 39
-9 59 4 14 9 25 21 25 26 0 6 0 13 0 17 0 3 -23 6 -52 7 -31 1 -53 6 -55 14
-4 9 13 12 62 12 l68 0 -6 38 c-11 64 -78 101 -130 71z m73 -39 c8 -5 11 -12
8 -15 -10 -10 -69 5 -62 16 7 12 35 11 54 -1z"/>
<path d="M670 2342 c-40 -41 -42 -96 -3 -142 25 -30 30 -32 75 -27 47 6 49 5
42 -16 -9 -30 -10 -30 -44 -30 -17 0 -40 9 -53 21 -48 45 -68 5 -21 -42 22
-21 36 -26 75 -26 40 0 51 4 69 27 19 24 20 37 18 137 -3 110 -3 111 -28 113
-14 1 -42 5 -62 9 -33 6 -41 3 -68 -24z m103 -43 c17 -24 18 -30 6 -55 -19
-38 -61 -44 -83 -12 -20 28 -20 48 0 76 20 29 51 25 77 -9z"/>
<path d="M913 2360 c-12 -5 -27 -18 -33 -30 -15 -28 10 -37 43 -16 26 18 57
12 57 -10 0 -9 -11 -14 -29 -14 -43 0 -81 -35 -81 -74 0 -40 15 -56 55 -56 17
0 36 5 43 12 9 9 15 9 24 0 28 -28 38 -13 38 58 0 80 -12 113 -47 129 -28 13
-40 13 -70 1z m71 -125 c0 -5 -12 -17 -27 -25 -22 -12 -29 -12 -39 -2 -11 11
-9 16 7 28 21 16 60 15 59 -1z"/>
<path d="M1809 2313 c-4 -137 -2 -153 20 -153 24 0 31 33 25 123 -4 75 -8 87
-30 87 -10 0 -14 -15 -15 -57z"/>
<path d="M2015 2360 c-3 -4 8 -46 25 -93 37 -104 37 -121 4 -136 -33 -15 -29
-47 6 -43 14 1 30 8 36 15 10 10 104 247 104 262 0 3 -7 5 -15 5 -17 0 -37
-36 -55 -97 -7 -23 -16 -40 -20 -38 -4 2 -17 31 -29 64 -20 55 -43 81 -56 61z"/>
<path d="M1479 2335 c-7 -140 -4 -160 19 -163 20 -3 22 0 22 47 0 74 14 103
48 99 26 -3 27 -5 32 -73 4 -62 7 -70 25 -70 18 0 20 6 17 70 -2 39 -10 80
-18 92 -13 20 -22 23 -79 20 -57 -2 -65 -4 -66 -22z"/>
<path d="M9660 2303 c0 -21 3 -24 9 -14 5 8 7 20 4 28 -8 21 -13 15 -13 -14z"/>
<path d="M9661 2224 c0 -11 3 -14 6 -6 3 7 2 16 -1 19 -3 4 -6 -2 -5 -13z"/>
<path d="M257 1933 c-4 -3 -7 -67 -7 -140 0 -134 0 -134 23 -131 21 3 22 9 25
88 l3 85 30 -79 c45 -123 65 -126 109 -18 17 42 35 86 40 97 6 13 8 -13 7 -75
-2 -85 0 -95 17 -98 30 -6 36 16 36 138 0 125 -6 146 -38 136 -18 -6 -46 -61
-92 -180 -5 -14 -13 -26 -17 -26 -5 0 -21 33 -37 74 -44 116 -74 155 -99 129z"/>
<path d="M2360 1886 c0 -16 -7 -27 -20 -31 -26 -8 -26 -32 0 -40 17 -6 20 -14
19 -67 -1 -49 2 -64 17 -75 23 -16 60 -17 66 0 8 20 -2 37 -21 37 -15 0 -18 8
-17 53 1 44 4 52 20 52 27 0 33 25 7 32 -15 4 -21 13 -21 34 0 24 -4 29 -25
29 -20 0 -25 -5 -25 -24z"/>
<path d="M631 1857 c-28 -14 -48 -43 -38 -53 4 -4 18 -2 31 5 26 14 67 12 67
-4 0 -5 -18 -15 -41 -22 -55 -16 -70 -30 -70 -63 0 -38 32 -64 67 -56 39 10
55 10 76 1 15 -6 17 0 17 72 0 66 -3 83 -20 101 -12 12 -25 22 -30 22 -4 0
-14 2 -22 5 -7 3 -24 -1 -37 -8z m59 -127 c-11 -21 -70 -29 -70 -10 0 13 31
29 58 30 20 0 21 -3 12 -20z"/>
<path d="M1033 1854 c-33 -16 -48 -39 -37 -55 3 -6 15 -4 30 5 30 21 74 21 74
1 0 -9 -9 -15 -21 -15 -36 0 -89 -31 -95 -56 -8 -33 20 -74 51 -74 13 0 35 4
50 10 18 7 31 6 45 -2 10 -7 21 -10 23 -8 10 11 -11 172 -24 185 -23 22 -62
26 -96 9z m57 -124 c0 -5 -12 -10 -27 -10 -22 0 -25 2 -13 10 20 13 40 13 40
0z"/>
<path d="M1223 1851 c-71 -44 -57 -155 22 -181 24 -8 40 -8 54 -1 26 14 31 14
31 -2 0 -18 -32 -47 -51 -47 -8 0 -25 9 -39 20 -32 25 -50 25 -50 1 0 -54 103
-80 154 -40 27 21 27 21 24 142 -3 116 -4 122 -23 119 -33 -5 -39 -5 -65 2
-17 4 -36 0 -57 -13z m75 -38 c34 -30 37 -59 7 -89 -24 -24 -28 -25 -48 -11
-34 22 -44 60 -23 91 19 30 36 33 64 9z"/>
<path d="M1464 1860 c-71 -29 -71 -156 1 -188 37 -17 59 -15 88 8 30 24 44 90
28 132 -10 26 -57 59 -83 57 -7 0 -23 -4 -34 -9z m66 -45 c11 -13 7 -15 -30
-15 -37 0 -41 2 -30 15 7 8 20 15 30 15 10 0 23 -7 30 -15z m20 -90 c-33 -19
-64 -19 -80 0 -11 13 -5 15 46 15 56 -1 58 -1 34 -15z"/>
<path d="M1695 1860 c-11 -4 -35 -5 -53 -2 l-33 5 3 -94 c3 -88 5 -94 26 -97
21 -3 22 0 22 62 0 45 5 69 16 80 40 40 68 1 62 -85 -4 -56 -3 -59 19 -59 21
0 23 4 23 58 0 60 19 102 45 102 23 0 35 -34 35 -99 0 -54 2 -61 20 -61 18 0
20 7 20 75 0 67 -3 79 -25 100 -28 29 -40 30 -77 11 -14 -8 -30 -10 -35 -6
-14 14 -47 19 -68 10z"/>
<path d="M1984 1856 c-58 -26 -70 -118 -21 -164 48 -45 126 -35 140 17 6 24 4
25 -38 10 -34 -13 -85 -5 -85 11 0 6 29 10 65 10 l65 0 0 31 c0 41 -15 66 -50
84 -35 18 -36 18 -76 1z m60 -32 c31 -12 17 -30 -24 -29 -43 0 -50 8 -22 24
20 12 25 13 46 5z"/>
<path d="M797 1853 c-3 -5 -7 -46 -8 -93 -3 -81 -3 -85 19 -88 21 -3 22 0 22
62 0 74 16 101 53 87 19 -7 22 -16 25 -80 2 -61 5 -71 21 -71 23 0 31 19 31
69 0 50 -18 99 -40 111 -22 12 -117 13 -123 3z"/>
<path d="M2144 1851 c-9 -9 -3 -181 6 -182 33 -5 35 -2 40 70 4 57 9 76 23 85
31 19 57 -24 57 -95 0 -51 2 -59 19 -59 10 0 22 7 25 16 11 28 -6 124 -26 150
-17 21 -26 24 -80 22 -33 -2 -62 -5 -64 -7z"/>
<path d="M15181 1824 c-20 -25 -21 -39 -21 -284 0 -245 1 -259 21 -284 l20
-26 279 0 278 0 16 25 c15 22 17 61 17 292 0 235 -2 268 -17 284 -16 18 -36
19 -295 19 l-278 0 -20 -26z m571 -23 c10 -14 12 -74 8 -277 l-5 -259 -267 -3
c-234 -2 -268 0 -282 14 -14 14 -16 49 -16 270 1 227 3 255 18 264 10 5 124
10 274 10 239 0 258 -1 270 -19z"/>
<path d="M15435 1760 c-24 -27 -22 -70 5 -92 29 -23 41 -23 74 3 31 25 33 57
6 87 -26 27 -61 28 -85 2z m65 -25 c10 -12 10 -18 0 -30 -25 -30 -61 -7 -46
30 3 8 12 15 19 15 8 0 20 -7 27 -15z"/>
<path d="M15391 1604 c-24 -19 -31 -34 -31 -60 0 -24 5 -34 15 -34 10 0 15 10
15 28 0 42 17 52 86 52 65 0 80 -8 86 -49 1 -14 8 -26 15 -28 17 -6 25 30 14
60 -23 60 -144 78 -200 31z"/>
<path d="M15237 1454 c-19 -20 26 -24 244 -24 206 0 239 2 239 15 0 13 -33 15
-238 15 -131 0 -242 -3 -245 -6z"/>
<path d="M15250 1392 c-5 -2 -10 -8 -10 -13 0 -6 95 -8 238 -7 152 2 236 7
234 13 -2 9 -435 15 -462 7z"/>
<path d="M15448 1333 c-127 -2 -208 -7 -208 -13 0 -13 467 -14 474 -1 7 11
-19 22 -42 19 -9 -2 -110 -4 -224 -5z"/>
<path d="M9380 1820 c-19 -19 -20 -33 -20 -290 l0 -271 25 -24 24 -25 265 0
264 0 26 31 27 31 -1 251 c-1 260 -6 296 -45 311 -9 3 -136 6 -281 6 -251 0
-265 -1 -284 -20z m560 -25 c9 -11 12 -82 11 -271 0 -141 -3 -260 -7 -265 -3
-5 -121 -9 -269 -9 -242 0 -265 1 -274 18 -14 26 -14 511 0 528 18 21 521 20
539 -1z"/>
<path d="M9635 1745 c-14 -13 -25 -33 -25 -45 0 -28 35 -60 65 -60 28 0 65 35
65 62 0 23 -43 68 -65 68 -9 0 -27 -11 -40 -25z m59 -21 c20 -19 20 -19 0 -39
-15 -15 -18 -15 -35 1 -14 13 -16 21 -8 35 12 23 23 24 43 3z"/>
<path d="M9615 1603 c-34 -9 -65 -45 -65 -75 0 -18 5 -28 15 -28 9 0 15 9 15
25 0 39 39 58 107 53 60 -5 85 -24 76 -58 -4 -15 0 -20 16 -20 33 0 25 56 -11
83 -27 20 -111 32 -153 20z"/>
<path d="M9492 1443 c-36 -3 -52 -8 -49 -16 3 -9 64 -12 233 -12 197 0 229 2
229 15 0 13 -27 15 -180 16 -99 0 -204 -1 -233 -3z"/>
<path d="M9443 1368 c3 -10 58 -13 232 -13 174 0 229 3 233 13 3 9 -48 12
-233 12 -185 0 -236 -3 -232 -12z"/>
<path d="M9442 1308 c6 -16 458 -19 458 -3 0 6 -85 11 -231 13 -183 2 -230 0
-227 -10z"/>
<path d="M4682 1804 c-45 -31 -18 -114 38 -114 23 0 60 42 60 68 0 26 -33 62
-58 62 -10 0 -28 -7 -40 -16z m62 -37 c8 -12 7 -21 -5 -32 -21 -21 -49 -9 -49
20 0 36 34 44 54 12z"/>
<path d="M14851 1744 c0 -11 3 -14 6 -6 3 7 2 16 -1 19 -3 4 -6 -2 -5 -13z"/>
<path d="M4514 1726 c-30 -22 -36 -61 -12 -91 36 -47 108 -22 108 36 0 52 -56
83 -96 55z m56 -31 c6 -8 10 -22 8 -32 -5 -25 -51 -25 -56 0 -8 42 23 63 48
32z"/>
<path d="M16110 1652 c3 -37 2 -104 -2 -149 -20 -234 -205 -460 -438 -534 -83
-27 -241 -36 -318 -19 -132 28 -289 127 -373 232 -60 75 -117 204 -130 293
-14 94 -34 91 -24 -3 9 -80 47 -184 103 -275 23 -37 37 -65 32 -62 -6 3 -7 -1
-4 -10 4 -9 12 -14 20 -11 7 3 18 -3 26 -11 11 -14 11 -16 -4 -10 -15 5 -16 4
-5 -14 7 -11 19 -18 29 -16 11 3 15 0 11 -9 -3 -8 -1 -14 4 -14 5 0 29 -18 52
-40 23 -22 46 -40 50 -40 5 0 14 -7 21 -15 7 -8 16 -13 20 -10 5 3 10 1 12 -4
4 -12 146 -51 164 -44 8 3 21 0 29 -7 18 -15 148 -20 185 -7 14 5 40 10 59 13
44 6 145 49 170 73 8 7 35 22 59 32 62 27 171 139 136 139 -4 0 -13 -8 -21
-17 -11 -14 -13 -14 -10 -3 2 8 14 21 28 27 13 7 23 19 21 26 -1 7 6 22 15 33
18 19 52 84 73 139 24 62 38 198 29 284 -10 101 -26 128 -19 33z m-925 -682
c3 -5 1 -10 -4 -10 -6 0 -11 5 -11 10 0 6 2 10 4 10 3 0 8 -4 11 -10z m152
-56 c-3 -3 -12 -4 -19 -1 -8 3 -5 6 6 6 11 1 17 -2 13 -5z"/>
<path d="M9036 1678 c-3 -13 -5 -32 -5 -43 1 -11 5 -2 10 19 10 42 6 62 -5 24z"/>
<path d="M14830 1689 c0 -5 5 -7 10 -4 6 3 10 8 10 11 0 2 -4 4 -10 4 -5 0
-10 -5 -10 -11z"/>
<path d="M4172 1657 c-26 -28 -27 -40 -6 -72 21 -32 40 -37 73 -20 45 23 54
62 21 95 -27 27 -62 25 -88 -3z m72 -23 c6 -16 -9 -54 -22 -54 -23 0 -44 28
-38 48 9 26 51 30 60 6z"/>
<path d="M14820 1646 c0 -14 5 -26 10 -26 6 0 10 9 10 19 0 11 -4 23 -10 26
-6 4 -10 -5 -10 -19z"/>
<path d="M4679 1631 l-29 -29 0 -190 c0 -156 3 -192 15 -202 8 -7 15 -11 16
-9 0 2 1 92 2 199 1 107 6 201 10 208 12 18 44 15 51 -5 4 -10 7 -99 6 -198
-2 -228 -3 -214 15 -191 12 16 15 59 15 212 l0 193 -26 20 c-35 27 -40 27 -75
-8z"/>
<path d="M3830 1611 c-17 -33 -12 -210 9 -293 21 -80 85 -193 149 -260 20 -21
30 -38 23 -38 -7 0 -9 -5 -6 -11 4 -6 14 -8 22 -5 8 4 11 1 7 -5 -6 -11 28
-49 45 -49 5 0 13 -4 16 -10 4 -6 -1 -7 -12 -3 -23 8 -15 -1 16 -17 15 -8 21
-8 17 -1 -4 6 -2 11 3 11 6 0 11 -6 11 -13 0 -10 57 -39 80 -40 3 0 11 -7 18
-14 8 -7 18 -11 23 -8 5 4 9 2 9 -3 0 -13 59 -34 72 -26 5 3 7 12 5 18 -4 9 3
11 19 8 23 -4 23 -5 7 -18 -17 -13 -17 -13 3 -14 12 0 37 -6 55 -13 19 -7 45
-12 59 -11 14 2 48 6 75 9 28 3 61 8 75 12 14 3 32 7 40 9 23 5 60 27 60 36 0
4 11 8 25 8 14 0 25 4 25 10 0 5 6 7 13 5 10 -4 77 47 77 59 0 9 -85 -39 -93
-52 -5 -7 -12 -10 -17 -7 -4 3 -21 -2 -36 -10 -33 -17 -44 -19 -44 -7 0 4 17
14 38 21 20 7 63 28 96 47 45 27 61 32 72 23 10 -8 14 -8 14 0 0 6 -5 11 -11
11 -8 0 -8 5 1 15 16 19 31 19 24 0 -4 -8 -1 -15 4 -15 6 0 9 9 7 19 -2 11 3
25 11 32 12 10 13 9 8 -5 -5 -12 -2 -15 10 -10 9 3 16 15 16 25 0 10 6 18 12
16 7 -1 14 8 16 21 2 13 8 20 14 16 7 -5 8 -2 4 5 -5 7 -1 20 8 30 8 9 34 57
58 106 39 85 42 97 49 207 3 65 3 132 -1 150 -9 38 -9 40 -14 -77 -6 -124 -22
-187 -68 -276 -72 -141 -203 -257 -354 -316 -92 -35 -265 -44 -364 -18 -205
52 -369 201 -452 409 -30 75 -32 89 -33 204 0 67 -1 122 -2 122 -1 0 -7 -9
-13 -19z"/>
<path d="M14829 1603 c0 -5 -2 -16 -4 -25 -2 -10 1 -18 6 -18 5 0 9 11 9 25 0
22 -9 37 -11 18z"/>
<path d="M4337 1582 c-36 -40 -6 -112 46 -112 33 0 57 30 57 73 0 26 -6 39
-19 47 -30 15 -66 12 -84 -8z m68 -42 c0 -18 -6 -26 -23 -28 -27 -4 -40 22
-22 44 19 22 45 13 45 -16z"/>
<path d="M10310 1586 c0 -9 5 -16 10 -16 6 0 10 4 10 9 0 6 -4 13 -10 16 -5 3
-10 -1 -10 -9z"/>
<path d="M4513 1556 c-28 -24 -28 -25 -31 -166 -4 -145 1 -190 18 -190 6 0 10
55 10 139 0 151 6 197 25 204 33 13 38 -9 36 -160 -2 -160 2 -191 25 -172 19
15 20 292 1 328 -19 38 -52 44 -84 17z"/>
<path d="M9017 1550 c-7 -28 1 -46 14 -33 6 6 6 19 1 33 l-9 24 -6 -24z"/>
<path d="M10310 1512 c0 -70 -24 -156 -72 -252 -58 -116 -171 -232 -278 -283
-103 -49 -178 -67 -285 -67 -167 0 -292 48 -427 165 -95 81 -158 183 -192 314
-14 51 -28 96 -32 100 -4 3 -4 -25 0 -64 6 -71 32 -157 61 -201 8 -13 15 -30
15 -39 0 -8 5 -15 10 -15 6 0 10 -10 10 -22 0 -29 27 -69 71 -108 19 -17 50
-45 69 -63 46 -43 76 -60 130 -76 25 -7 50 -17 55 -21 6 -5 33 -12 60 -16 28
-3 57 -10 66 -14 8 -5 61 -8 118 -8 76 1 106 5 117 15 8 8 21 12 29 9 19 -7
31 14 14 25 -15 9 -19 7 61 34 43 15 44 15 25 -3 -11 -10 -24 -19 -30 -19 -31
0 -47 -4 -41 -10 16 -16 58 -13 85 7 16 11 35 20 41 20 24 0 87 43 103 70 9
15 33 35 53 45 28 13 33 19 23 26 -9 6 -19 3 -29 -9 -16 -17 -80 -65 -80 -59
0 2 26 25 57 52 31 28 54 44 49 37 -4 -6 -2 -12 3 -12 6 0 11 7 11 15 0 8 4
15 10 15 5 0 7 -7 4 -15 -9 -22 4 -18 16 5 6 11 7 20 3 19 -23 -4 -24 3 -4 25
12 13 23 30 25 37 3 23 17 40 27 34 5 -3 6 0 4 8 -3 7 6 39 19 70 38 85 63
277 36 277 -5 0 -10 -22 -10 -48z m-260 -527 c0 -2 -13 -11 -30 -20 -38 -19
-40 -11 -2 9 31 17 32 18 32 11z m-600 -81 c0 -2 -13 2 -30 11 -16 9 -30 18
-30 21 0 2 14 -2 30 -11 17 -9 30 -18 30 -21z"/>
<path d="M4175 1495 c-24 -23 -25 -30 -25 -143 0 -88 4 -123 15 -138 13 -17
14 -6 15 103 0 127 9 173 34 173 29 0 37 -39 35 -161 -1 -65 1 -122 5 -126 17
-17 26 31 26 145 0 117 -1 124 -25 147 -13 14 -31 25 -40 25 -9 0 -27 -11 -40
-25z"/>
<path d="M4342 1427 c-19 -21 -22 -34 -22 -120 0 -91 9 -123 26 -95 5 7 7 49
6 93 -3 86 5 109 34 103 17 -3 19 -14 22 -95 2 -65 7 -95 17 -103 17 -14 16
-24 16 105 1 85 -1 91 -26 112 -33 29 -46 29 -73 0z"/>
<path d="M14870 1236 c0 -2 8 -10 18 -17 15 -13 16 -12 3 4 -13 16 -21 21 -21
13z"/>
<path d="M3889 1153 c11 -21 31 -51 46 -68 16 -19 10 -5 -16 38 -45 73 -61 89
-30 30z"/>
<path d="M9595 780 c-3 -5 -3 -32 0 -59 3 -29 1 -52 -5 -56 -6 -4 -10 9 -10
34 0 31 -4 41 -20 46 -37 12 -57 -3 -64 -46 -9 -55 -2 -62 55 -57 26 3 52 1
57 -4 20 -20 27 17 23 130 -1 22 -25 31 -36 12z"/>
<path d="M9980 736 c0 -30 -4 -57 -9 -61 -16 -9 -22 12 -11 41 9 23 8 31 -9
48 -21 20 -21 20 -35 1 -13 -19 -13 -36 0 -102 4 -19 10 -22 55 -21 l50 0 -3
71 c-2 59 -6 72 -20 75 -15 3 -18 -5 -18 -52z"/>
<path d="M9160 709 l0 -70 63 2 c34 2 72 -1 84 -5 16 -5 28 -1 42 13 27 27 31
26 31 -2 0 -25 28 -57 48 -57 7 0 21 9 32 20 27 27 29 130 3 131 -10 0 -26 2
-36 4 -10 2 -26 -4 -35 -14 -16 -16 -18 -16 -44 3 -36 26 -76 10 -84 -34 -5
-25 -11 -30 -35 -30 -24 0 -29 4 -29 24 0 45 -13 86 -26 86 -11 0 -14 -17 -14
-71z m275 -29 c-6 -9 -9 -9 -16 1 -10 17 0 34 13 21 6 -6 7 -16 3 -22z m-118
-2 c-3 -8 -6 -5 -6 6 -1 11 2 17 5 13 3 -3 4 -12 1 -19z"/>
<path d="M10042 768 c-15 -15 -16 -92 -2 -119 6 -10 17 -19 26 -19 19 0 29 26
16 43 -11 14 -12 47 -1 47 5 0 16 -14 25 -32 13 -25 14 -36 5 -50 -13 -21 -7
-38 15 -38 15 0 64 100 64 131 0 27 -13 23 -32 -8 l-17 -28 -10 28 c-8 19 -17
27 -36 27 -16 0 -25 6 -25 15 0 18 -12 19 -28 3z"/>
<path d="M15424 747 c-3 -8 -4 -43 -2 -78 2 -49 7 -64 18 -64 12 0 15 15 15
74 0 51 -4 76 -12 78 -7 3 -15 -2 -19 -10z"/>
<path d="M15800 686 c0 -54 4 -75 14 -79 21 -8 26 2 26 47 0 30 3 37 10 26 5
-8 10 -28 10 -43 0 -30 24 -47 42 -29 8 8 8 18 1 35 -6 13 -8 30 -3 37 6 9 13
3 25 -20 14 -27 15 -38 6 -52 -14 -23 -6 -38 19 -38 13 0 24 16 39 62 12 34
21 66 21 70 0 17 -28 7 -37 -14 l-10 -23 -7 23 c-5 14 -15 22 -30 22 -13 0
-29 7 -36 15 -17 21 -29 19 -40 -7 -9 -22 -9 -22 -9 3 -1 22 -17 39 -37 39 -2
0 -4 -33 -4 -74z"/>
<path d="M3840 669 l0 -82 46 7 c66 9 75 19 70 81 -2 29 -6 58 -10 64 -4 6
-29 11 -57 11 l-49 0 0 -81z m69 -18 c9 -6 10 -11 2 -15 -13 -8 -31 1 -31 15
0 11 11 11 29 0z"/>
<path d="M4212 673 c2 -61 6 -78 18 -78 12 0 15 15 15 75 0 64 -3 75 -18 78
-16 3 -18 -4 -15 -75z"/>
<path d="M4760 670 c0 -73 2 -80 20 -80 18 0 20 7 20 80 0 73 -2 80 -20 80
-18 0 -20 -7 -20 -80z"/>
<path d="M4822 673 c2 -61 6 -78 18 -78 23 0 19 149 -4 153 -15 3 -17 -6 -14
-75z"/>
<path d="M9697 732 c-23 -25 -21 -58 3 -82 23 -23 33 -24 61 -10 22 12 27 78
7 98 -18 18 -53 15 -71 -6z"/>
<path d="M9799 748 c0 -2 -1 -25 -2 -53 -2 -45 1 -50 21 -53 19 -3 22 1 22 32
0 20 5 36 10 36 6 0 10 -16 10 -35 0 -28 4 -35 20 -35 17 0 20 7 20 43 0 24
-5 48 -12 55 -10 10 -86 18 -89 10z"/>
<path d="M14980 687 c0 -41 5 -69 13 -75 16 -13 87 -4 87 11 0 5 8 3 18 -6 27
-24 58 -21 81 9 18 23 21 24 22 8 1 -11 1 -27 0 -36 -1 -10 9 -23 23 -29 20
-10 30 -9 51 5 22 15 25 23 25 76 0 58 -1 60 -27 61 -44 2 -57 -1 -70 -18 -11
-14 -14 -14 -28 1 -33 32 -95 7 -95 -38 0 -14 -5 -17 -22 -12 -13 3 -26 6 -30
6 -4 0 -8 21 -10 47 -2 36 -7 49 -20 51 -16 3 -18 -5 -18 -61z m280 -28 c0
-11 -4 -17 -10 -14 -5 3 -10 13 -10 21 0 8 5 14 10 14 6 0 10 -9 10 -21z
m-110 1 c0 -5 -4 -10 -10 -10 -5 0 -10 5 -10 10 0 6 5 10 10 10 6 0 10 -4 10
-10z"/>
<path d="M15736 731 c-9 -14 -4 -94 6 -113 5 -10 15 -18 24 -18 20 0 29 27 14
44 -8 11 -9 20 0 35 17 33 -25 83 -44 52z"/>
<path d="M15344 710 c-24 -9 -40 -76 -24 -95 13 -15 85 -4 84 13 -1 6 -2 25
-2 42 -2 34 -27 51 -58 40z"/>
<path d="M15521 693 c-31 -39 -8 -93 40 -93 36 0 57 64 33 99 -20 29 -48 26
-73 -6z"/>
<path d="M3980 661 c0 -27 6 -53 13 -59 17 -14 76 -9 87 8 7 12 12 12 28 -3
10 -9 28 -17 39 -17 33 0 44 22 37 74 -7 47 -7 47 -43 44 -34 -3 -36 -5 -36
-37 0 -48 -23 -52 -27 -4 -2 27 -8 39 -20 41 -15 3 -18 -4 -18 -37 0 -23 -4
-41 -10 -41 -11 0 -13 11 -10 53 1 21 -3 27 -19 27 -18 0 -21 -6 -21 -49z"/>
<path d="M4276 703 c-3 -4 -6 -31 -6 -60 0 -46 3 -54 18 -51 12 2 18 14 20 41
4 48 20 48 24 0 2 -26 8 -38 18 -38 20 0 28 93 8 99 -31 10 -76 15 -82 9z"/>
<path d="M4402 697 c-16 -18 -25 -69 -15 -83 17 -23 46 -32 70 -21 30 13 39
48 21 84 -15 32 -57 43 -76 20z"/>
<path d="M4504 696 c-3 -9 -3 -28 1 -43 4 -17 2 -29 -7 -35 -10 -6 -10 -10 2
-18 21 -14 74 -12 88 2 9 9 15 10 20 2 13 -20 51 -23 73 -5 18 15 20 22 12 61
-8 43 -10 45 -46 48 -43 4 -56 -15 -38 -54 10 -22 9 -25 -6 -22 -12 2 -20 15
-23 38 -4 31 -9 35 -38 38 -22 2 -34 -2 -38 -12z"/>
<path d="M5012 694 c-49 -34 -10 -118 46 -98 34 12 43 65 16 95 -21 23 -33 24
-62 3z"/>
<path d="M15622 658 c2 -39 7 -53 18 -53 10 0 16 12 18 38 4 43 22 51 22 8 0
-29 21 -57 33 -44 12 11 8 78 -5 91 -7 7 -29 12 -51 12 l-38 0 3 -52z"/>
<path d="M4870 661 c0 -49 8 -71 26 -71 10 0 14 12 14 40 0 22 5 40 10 40 6 0
10 -3 11 -7 0 -5 2 -18 3 -31 3 -26 22 -49 32 -39 8 8 7 84 -2 98 -3 5 -25 9
-50 9 l-44 0 0 -39z"/>
</g>
</svg>
